<mxfile host="app.diagrams.net" agent="Mozilla/5.0 (Macintosh; Intel Mac OS X 10_15_7) AppleWebKit/537.36 (KHTML, like Gecko) Chrome/133.0.0.0 Safari/537.36" version="26.0.13">
  <diagram name="Page-1" id="j0Iyzvwkqg1TeTPXYnwf">
    <mxGraphModel dx="2073" dy="1155" grid="1" gridSize="10" guides="1" tooltips="1" connect="1" arrows="1" fold="1" page="1" pageScale="1" pageWidth="850" pageHeight="1100" math="0" shadow="0">
      <root>
        <mxCell id="0" />
        <mxCell id="1" parent="0" />
        <mxCell id="IgWn3m0ip8-gV7TmxtZY-1" value="" style="shape=image;verticalLabelPosition=bottom;labelBackgroundColor=default;verticalAlign=top;aspect=fixed;imageAspect=0;image=data:image/png,iVBORw0KGgoAAAANSUhEUgAAAXkAAAHcCAYAAAAz0tpgAAABXGlDQ1BJQ0MgUHJvZmlsZQAAKJFtkM1LAkEYxp81w+i7iAiK8NIhUFP7ouMmEkEH0cTqto62G6w27G5E0B/QsUP0F0TX6GTHio7dgoKIOkeHDoIQJdM7WrlWMzy8v3l4ZublBTxtGuemF0Ch6FjJhXn/yuqa3/cMD7owSDuoMZuricQSRfBdm1flFoqsN0H51stT7kSJRzLm8NXQ3Ohb5G++abXn8jaj+kEKMW45gBIgTmw7XPIu8YBFTRHvS9brfCQ5W+ezWmY5GSO+Ju5lhpYjfiAOZF2+7uKCucW+epDdd+aL6RTVftII/EhBRRSzpDSd4jSf//NTtXwMm+DYgYUN6DDg0B2VHA4TeeJFFMEQQoA4ijBpWs759/wanvEKTJTpqz6XdwpchIGeg4Y3NgN0PwKXe1yztJ+pKhWvvT4ZrXNHCWg9FKKcAXzjQPVOiPeSENVjoOUeOK98AlUPYgk0T4pOAAAAOGVYSWZNTQAqAAAACAABh2kABAAAAAEAAAAaAAAAAAACoAIABAAAAAEAAAF5oAMABAAAAAEAAAHcAAAAAA0l4IUAAEAASURBVHgB7L15mB3HcSeYfaG70biPbgAkAAIEL/EAb4CgDtKWKK1kHR6PKdviUJqx7KE8K9L2yPJ+3873eeaP9a5t2ZYIeyjbsse2ZFuU12ORkkYiLIlc0gQIAhQJkiAIkrjv+2xcjUZv/CIrqrKysupVvVfv6O5MoF9WZkZmRkZGRkZFHtV2cNORkTYlrk2N0D8f9vTQFPD84MeDlwejXh5CyItI876ngKeAp4CnwNiiQKeepfALWe99TwfPB34ceDkwluRAW0KTlzGeNpn5dC0DPH3cFPD84flDa46eP1wUaML4aAce6BP9R7/6fxQO05Dk0z19hFcCfvD8EYwVPz68fGhR+ZjQ5GnQeucp4CngKeApMDYoELfJt9FMNCLvEw7fp3v6eP6gkU/jxLWG5ceHHx8tOD6SNvmxMXn5VngKeAp4CngKEAXimnyahuLjiVSONxtPF08XzxfEAylvNj6+JcaH1+SpG7zzFPAU8BQYqxTQmjzbEqmJPCGTxiq2xZjv0z19iAdgc4zxhYQ9f3j+8PzRiuPDa/LEl955CngKeAqMVQp4m7y3qRJve5uqX3Pxa05jdRw0RZN//smfqN1v7VcrPnqLmn/NXLVr8z71zS/9L/Vbf/HLY3Uy9e3yFPAU8BRoCgUabpP/5h98T+0koS7uF0jIs42XInaR4F9w9Rxv87Vs3juJLnjhWHAt0crbxFuGP55/8mX1/Hd+ohYQD8+/eq66++O3quefeEnNv3aeg4+JwcfhmhfogYbf/bFbx2X7o/HavP7vxEsaI8I+fsjxhn6Xz6lVp+96c18o4KHFo+Pj9eNiV1e9HEv11lZ/2fkfpwnrcpqUmIEZ7/rgt5refODmX/NhXUGd+qds+iT5SKOfjG/N/k3iGeGPt9HV33k5iEDfzCHwEVZU0Jr5UFYS/RTl56dxkP480QhjnUd2i43f8dI/hiZPPWBpkGWHd20mjZQcNJ9388xOqg0GRhCP+qDslF1vPcrb+eZenrDwVvLuj9+mB3QK/bQmrumb/qaSQX/QhFxbSvn1aB8PAF9far/C3Ag+/oUv0MRr0on6CcLf5O9YOgS7CT/Ww+Bb/scMnEpPz2/14wvW5NuI0agKJb7McBK2/WrTd72lzTTQfv+VNCEMBNRLPc+/u0hwmhqQ1It4CFNZHhTNWdLhIx2DjkvCwCEn6VwupUk4D/5YJxBNDTitIFzN/KbJCSYotClsT1A/6kUZJizwgmDAWoSUZ/s2fpIfEwsc8sLZ+SRs55d48X16nD+ELuJXoo/w492socb7gTuGfkx+lHLFr1T+WEkHnbRrjHwZb/SV9tq+zT+kyZPo1P+5P9rA/6xO6+6RsERJWKeCwTV8VvpOEu4wOYiwEuGJurXADnNTDD1LkIpe/cRP2O4p9cFH/l/4rY+wUJf6sXB790dvjWx/QQaYiMI0spkKvJQnYakS8KvJziq4Ag7PeO3kOsn2+s0vxdcVkI6/BWyLxRqDIttsHG9MQFIm40+wcKgPE4q25+o8rCFS+wCPCUQc2gEnbcezjb+EkQYnYWmfhHWqTxd65KUP+FEc1pAepz5Bf0h+SWNtnTR2u3zpb8DNpzWWBcRPJstLOvgBzs4PEyEUDvCIK13gOTHIL+MPceApHicp5aN9Ujd4WBQzWXNwlS/4Ax4OeYAj04BjiA54eyGXld+n14c+pMmTlNaKDXcC/5QcZk2YtB44MBlsdHArPqZtdcJIwMXER+yeYGjJg/wQkhB+ohEDfzxDCCK/aPqSH3VxyYGGDfiYM8I7N+u3BqSjThHOeD1HO1COiQvg+JWdfEnHQJUFOcCK5g3YP/iVv2QaQCtHvEwooAHaBgcf9l2hm0yKUi/XI21BBgN/BH2YqRD9lEgf9Ku4sL+CvkQ83ugQz/1Lz+yofnkzlDwc/x3NY8KvAow68GfyN9IwoSD/Cup78EfojEeOM8KSJ4SlBykf/MR1B/DAEWngceE5yYd6waOfhHnKKB/pEO4JeEM5Qb68+HJ9Vvl2fT4svRL4FejVMJs8hCVs72AWrfEau2gCXKHF83xPsz4GiTAONCV+BaF4lAMoMCPSZXcO4qGhIB7pd9MEIvm1hk8TC7QJDI4MP8pDAyCwtQNfMx/jT/X9PglsOFf6F7Ed1FGPTBrIJ9oNnkEX4IkFPLM8mIAEp0q2f1d9Jt4+vXL/V6IX+tXcVcMTvNHPWl+lvpX+DfhN3sLQ/9ByYcrA2yH6VvgV/WPyMfKgfPADdqloHiHFw+LHtH4FnjzeUCcUliCf4I+6UZ/Ey9qY8Jt+c9XjVHbFyZuL0Al4CbzwL/CR9oG34ZguBp0kv/ez5VEZ9GmoTT5UAaCJoOMDn7mAf3Q8GgbmhGPt1YLHG4BovsLEKA+CHfEQ9PDF8c4HCoT1UXlwEjZ9EcIMYdUrcEx4LiH4seCQLpobNDswuNj0zWyAE82PBze/2WA+ieMX5gnqkfoFH9v36XH6lU0f8JMiLVy/uSX5CP1l8s9q3kZI/EmCls0YlI680KKhKIBfwdOCp8nfEPTIhwkBPIL8Nn9IPvGl/7lcymuuFQEveYOGcBZBrymmf7keTAqEI2JQLjR4vIXCSf0iyAGPdPC5LkG3D7DAG07K4XSLvwVv8QV/Cdu+T9dUtukiYZs+naJN8kxLnZGwmXEXUbz43FtBAPASL35megBNM7pZL+x9WqhDpyEY+g/zCBx80YKCKmiAaHskwtA+oIkIHr/whY/QwPlaOElAu2BNJcgMUwpMJHAyQZg21RUEv3Pz95j5tYlG73+W8m36cEFoDz9o+sFMhAEGJ5MVmJ01HWkrtBrOp3NymxBOoR+XRbQQGy4XTj9hvUFEWv4QLqV8n64JmI9+IbVifIwShBM0H+uQCDrsn2dtWbITPAQkeITPiNCz1A+eFO1Z8rOigB438stj6Af9K/ZxwQNKB7sgXfBk/gz5V5cCXpQxE5arczOuMnZF82e8wM/kBH8NLrkp3pkeNUUg4/l9ekgXTVCLvvno0ymzclCG9sAIWa7K9EBPhypA/6NCJB4+P0dJIRYiLBFhPnMOo6wwQ/Ag+5clXmzgEkZZJi6Ax8lbsecjXTSi0HYa4CcDVOzrUqa8RfArcjCIkSaCn+ECGnB7KSLWDkf7wzzQidLSGYgLkye37/O76SKxFemjAWJ9FuS1+zMUrpRuLqJLVeJjY8J82LvhgvpN7Rm8pt8cKDFIB49CETHHg9jxBQ/wXIzvdA2xX+FfyeNqFzIIv8t4ET5PWyOSNx7klTx4Fvz52fUTtM+VxHE+PZU0LvpENnnJBoGJWdf2S0gX7UFrsFRgUI/Ew+eZi+LBOGDe0JYY1A+G1BoELUySZhTuOw/S9Qk7QZYGFr3ufvFrnw0jMAic+9YFImg3XnHFBi42TAyomA1W8hC+oqmAbsAbA0Lyi1aEMPCDZobBb76BoGwuw6Y7hWVw2XQT+rEvuDjy+3TRh4hIZdGHiuI+A93Bx4GTJ/ghTwRpeJPTEg6pkFSRj502dv+bb7DgqdVkY4dJkuujdmC0YJyYDryCdMGDwwQQvf1G9WL8gB7Cn/BhvkFuzo92Cb2MSgRPlAm8Yu0UePGDfCGMxNu+lG/HS9inawoIPWw/gz5xmzwBMgtQAU6/xvRwZrfK17UCy6he3pFCDGfaDMF4iAfjRqxKPC3lUXr4aks2RcAjDA3KtBmGtkauMZ7f1W6x9YOhRYADTiYi2CbxjPoQHzrBS3xKwGs5HMMF8RzBkVH7TTwS9Uh5th+UG9LDp2s+ETqURB9WLIJOM/vJ7H/pX9lZBZ4FHzG84GH5EKhSHs6RCK9B0YHAh0aOMST8n1oelSPjB2hCMclTLwt0ZCBowcP0OYmTdbpwOxQXbUrSMcJ/clJbZ8GkFE8XuND36U6610qfdp5hRRNtgI8OZ00DWoLUp/UGJGitgOKhVYCZwejQpFk4Ujx8MDxW+cP8QTmAg0M+aM3YHSNlQAuy4V1hlIvFMBMemj/w4LKh/WTgDXpKncBH6Au8Ua6Uw7oSYFGeOCnX9gP6YMJCeSY9pHzvG/xk068O4ajLrHqDvpL+Rb+4+EH6C3wGvhD+Rjz6F8oNHIQneES/BegzIiH/ZbTLHj9Sn/gyjkw+R7naReNQ4NkPUqV+3n1GccKXEg/f3roZKycDbw9n8RP6pEZ6xWzy6GLM3Gmu1vRQU4DGQn/iRC+AlmLGQ/sGs7BNkXYzmA7ajQkrNnTAIJ+kmWWgfNGszLLkGe2T3S4uWyafcDTwxi4FgYN9Eho3BiVw48kpwx6KNgNH5Akd6BIGogepBzG//9mvccIKRfvvzbwUW2v/+PzF+V/4DJ2i6ad70ORlmx8g9OFkwkeY+zLof+Z3Skc+xKMO8ACwM99MUYbp7P4z6wVnSbppxwe/h22geuCEN82yzecQniJRByYkvC0zrhQXTlBBGvIij9SPsMv59OL8Z9IxjX4JmzxeDTBz6OrID8O6uFrSoV3g1VFrr2AoXT607lDzQTVG/YAXDV0Weli7IYEt+QGPMsFcEMRa64jKB/x82lXD9YbtidJ1fahY8XYz4IK6MAhlQOo6aXBa+WV7G2ABA8qhHsQDPxmwKAfpyI81hbs/rtO5PFQMhxnbKl/qgyZnloUbKbmdIXxQRBh2ty+tfJ2bUPD5uR8q839Ab3jMr0aY4xCt+Rv8gHUh7HhBH9rCXTRiZIPpDw78I+c0pPwIDpo2oHT5ks4xRv+hXowfvPmK4AUMnPBjbE0raAf431W+2PXN8YW1K8Cb7UL5gj/qRXt1HsLYwK8S/j49u3/z0ofvkwe/BCLB+0SLVqaHTDy+v1q7n2rpHyzK442zTD6UiQUCGK7s8tFe2UmECUTaj3oRLwqQxHu/gfx76M2joLd3ngKeAp4CngJjkAJsk7c1BmmnHS9hn64pIPSwfU8fTx9QwOYLCXv+8PzRUP5IavLyIiWsaPs+XQ9fmy4S9vTx9IE4T3OePzx/NJY/4po81c3rIry+Tl0RhgObfRjWu0B8utDL04dFl+cPP36IEdq8/NBrEuF4aLJ8SGryaRqIj/cU8BTwFPAUGG0UiGvyhL28TDbDHxw8HdZ/mp7h+vomsW1T/GbgdXD7sRCvovUf2HaM21GPn4FF06vCa9LsrqrykWISyzeZ+qYoPUYr/LoN69Xx/afUvzz1tBo8fjbszr5pvapvWg+HJxnPIYB/cFLgtqV3pK5Z2Hxmho9SH5hhk5+O7zvlrMsVeexAAVgqd2j4gqsYZ9xlUxap7k7NEwAYWDSD4foXTmcf47b/iump7UhrX9XxSU1eyMb4OH6Kp6/fsC5WztlzZ9Wx40c5Ds9FXW9Pr+rp7lUnDg2qngk9/CxlHNt/Uh7ZP0ZMAbflwGb25cccqBLXqv7FSxcTqA0PDyXiXHCuuETGnBETJ3enQnZ2dHFaZ0enuvFdS0O4ni7N7N0TutX0OVMoXvPP9LmTGOZ2GuxxV5y/6pUffPtnf/tVZfNvvD4f8hTIR4G5kxaq9rZ2/ps/9UoW9A89+Gs0CWjhr0spn//1PnmaIuSMQq3+ulfWqz//+mOM73rSfrzzFKiWArcvvZ2z3kb+f/x3n4vWiErk1zR+Bx//6hfowy/krhy4Vs3snKf6OidzuJafKTP15DZ5Zq9ef6QxPWVmX6zIKbMnljYezfadOnwmVo8ZOHlkMMQHKuapw27l6+QR/YZt5m3Ec1dHXMGY0DEhVu2EIL3Lio8BBQEI2Lxu17GtFUEPntkTgzk4KN+2jUWrQwbcwTMRzB/973+h7vn4nfXj76QmH0esSOirf/sYaT6PKdHOFs+7Wl0+MF9teXWXahZzAH+TQWzmQLowyIXh8wimuguOV7ahCnlSC6uQ0D/xsgoQ9Uu2mbbWmtKYHuX290V396CfjpzRdwR10JtB/4Jp6rtr/mdY/X988HPqIfprhBNefuj9X1SXjnSpE+fqZ3arpT0z503l7Ef2nqilmDGbt7uTJlNyPYb5RBrb3aXTwrAFc/Lssbr2O8bZ0zueUP0T56kH3veQ+nf/+ROCSql+/MSraEhUBb80FAhjULz0Kmk/pHHdQZrX099+Ua398culIusLG58UePPIy6qzvVO9tP850ugfYkFflD+Lwt/ygaXqE+/5pFoyfIfKo82Nz57xra6VAk/v+LaCVn/vwo+rzzzwGXXjPYsjW30B+ZvF38kvQ1HBcIHHrxB5wn/29a+qv/jDv1TzpyxR//gnq9SWt7ZxOeaPqSF29+rXre6e6LVrz/Ed6uKF4TDL0IW4LdrU+kKgjAdow2adAC1DQ7bLTEPh2NDBtKTS4udMuVyZNDx/Lr5AtP/kbq7LpKXQsQxalNaQjIKunYl7fpSCdg8+u3LgOvWBD93LccF1K4X5tRJ/o3AsuPfPak0Nnhvvf0Y9Ba6ffYc6SNo83mJfe3qLuulebUqqxJ9F0vXuGuQIpgK+La5g+M/IBg8NC2aax37r8fAVB8Jw46F1PFPl6Y3r59Ore4cBabxNjQwPqwNDOznxjb0HDKDqHq+fdYe6gQhcyb1O+J8a2q52njhUCTSWfssV/aotmr9iaWUGDpzbotS5ZIkXhjs5cuPevYrpatDy6R3RQnheOhTtyyRG+WOAE5zdP8su+ym179QOtfLPH1Uf+OA9pInQjmwyOrOgr4F/nfkZAyLtRQdxgzTveQqURQExU+7fdlTNwUJsifwcavKiCsltcUXCL214SWFx7If/Y30o4NF4EfDfuH+Kaps2Xy2/7vKyaJK/nPPRVqkRel67fVC9sO20WvnMOrXx8Dr1sSWfURdppwp2h/R2TYyVCwEPmGXzu9TvflC3QRHM8iV6S1QMuGUDNzow03EvbNqtXnjtdfXdTbvU9bPfr+bR6r/Lfeftb6h9p3cwHRbRDpllV80OwZaVTIu172DX1VH16FNb1OQZferaqbeqs6e1oMW2tBXz71OPb3yMtjI+w9p8NfzKyAeqkCv/t/76ibB95y8mFyCn9tAgTHF5JwVXuSlF+uhxQAFZH8CNnmxHyeBPJkeB9FCTN1fhodkUCWPamTE8T739BmmVgYOAhK0JAn759QtV25RogU1gGuJ3Rzsi2uh5+U2K/x6+bb164Fsn1XO7v6fuGLhXXbw0pLrau1jYC14Q8J+/q1c9vGKiar9c7/SQtLHgL7usXd05GRPbCfX9zU+rK2f8J4XF574JEc1W71rFAh50+HVcj2zQsx40kAkUk8en/vQZNXDzZapHTVUiWGVnxLF92CpLJ69J4ynKr5Xgt76sdz64tp9iIW9Kb7qQxybRWt35lLeH80PJCSdPXSJA8sCWAVMUT3NiHG+Tn7kpBLQ/QJr8wKJppfJ1qMnzKytVUo1/+vg5tfUVGhiXgukl4JSlc0jrbaaAD/BI8yC4fvv7kd3/7NAZNblD71bAJAUHAd+0CSoN8ZLj0caVa/aoY2eOhCWLoN91Qk/cj3xoSd0FfFg5PUDY/91/ukP9l8d/rO6c/bOqd0IfH0iRLXLraZH/fvXxqvgV9aTx+WvPRIoKdj00w5kHacz60+JNmFZ4LopnpYnRnPTMCWS0TQ7mTp9w4m2HXcZwLELlPv90Pk3jX1d8qMnrajJsnAzgTjdQDB+xJ3TRzOSBnRCgiQ8jJ7WmBjNM34SLavIEzWadtMe2f7Ie2Md3H2YtHmiORSEPGggd7K4YuniB9pVGsaBTs9y2w/vUsv72cALq69b7zOWUaWiTZwTd/CmMTz2ZbsMP8rMtNKOxrq14GeA+qQQKmJOG+Zw1OaRNDEDHnBwEvWrfIERwSznwhUdEkJs4m3DOZ5b59AOfGLcM/g41eanQZaOUNPh2+sHtx9XgsbNqcMIpOiwSJ/udl3cqmEhijuzisI0rw1bO6QYc5zHCsfwlB9roBFpfj9beUbR0yJ5T2yjUOyYFPGifJuDTyJvoxzTAEuOX9Z9TS+f0qaPnDqo5ffO55MHz8cM4IT8G9YZh22aZMx2a/K6TkTZfYnN8UQ2kgIxjVGk+IxyXUohpHaevQCDmrZJ/XfwfavLV2jZhQ8p0lrCGgHcKGEPo82RmFBoKGKssgIRpAu+AkST4WRos0nFHhZgEELbLl/wcH9RlPiNPpjPamQlnJfLEaMWFwQJlppVzzax0OzMma5eTfozRqAL9XeW44oTOzjQwK7vybfJmfTN6BlS1Gp5Zjn/2FMhLgf4rphFouXwdavLySlvUP7jDvY9YH9s19u3lbaUDLhRMDmEmw92RjaNiAohiwrJSMmDh0RTyiYXGAAcuR55Tyhqt0a6TvS46iJCv1Ae10KGni0xHDofLwKDuFOXXSvCOqmJR8goei/QBT4ESKHAj7ZEXTbwSnxZJb9fGH2AoQ7WYD00er7dOweBquENQu8DKioMwNv8qlcv2aAHqjN+XgehKk4RkHW1+T+cFtX9wVwLt7s5W3ydejF+z+Ny+MdRr8Ql28BF1p0B5/KxRHVEk5APjT9V+RqsdQjIDuiWSujqNFUcHRvabgQNkbEY1eHIWIqaZiiS9dv6N+B+3Acq1sFH58SfbvhtP9SFPgeopoE+7RvyoS6o93I7VW2g31fhp9vi8x/6rJ0d5Oc9dzBbq5dU0ukoqcn92M1qmd9dUx7dZ/N6Mtvg6PQVwv3wWX1Yjn6W8dm0Dgm0TM0Zxv2j3tJq5Y8dx9xUJS2ak3AJZ0sJiUbrVGx5nGlzu/MXo4weu9GbEMa9Wya+V+PzGe9KvoXVtl2tG+32dY48CsqumEn9Wk16zTT6T3Dnuds7M34KJY9VcM7X3tDpwOmmTb4UuODe8yYFG+bZLVILThotvbs4hKEcjfdS4oUB9+BnafE02ebFhzp9yJW09TN7FvnyRPrgybvppFDfUPvA02CQbfF4S4r4k7Wq3Wdrl9E137wqTQy55cfRwngJ5KTB4TDY4lM/PgSav7fJAiKyc/Isn7eLhZHoAltNrJU147a7kiVz5gEjO5owLsBd3R1c/hA0ms1WjTgKfOOtSFvLyZyX+TabjcJ93ngLNoEBSvib5U8vm/PwfaPLaHo9GkVWef+O7FiQuma4XDPKTo1GCIT9GGZAXk28nrbamkIF94aT9g/rueWTMsyW2GRN29GUvU+NJ50/Nx8XSTxsf6i5MRJ/BU6AKChygbxfAFZW/efi7Zps8Lrq3XdbHKFpdSMYOQqFhLW62sGlfS9g8eCTCFLc+4o3nha0nEkU3ty9NTQaolR1ONNdHeAo0gAJl87Ftk2flyNCQKoRfdQh4ocKCqbPVoz/SF4FJXKv5trlGBFsMT3s3zRgV+jYt5LwA1lvg/vCp+n/lKkb3ILDq7R41MEnfW4MowYs1mAr8yS+l+odyEnAh+AABw/OnXQ1i+MdSKCBXZw/i7bEQf+bn57hNniaRmE2IJxX8BH92ekYzJ3ddodbuPKde4I9AaMCs+0gyiqpbEmzNA8HFV6gkEiC6yhf3MAFi9TdXe42hUnpg2oTFiTLBhPhQx092HFJf+cE7/AegRvQlJp7Nh4+Fl5PFkWNmBCbRn82f3H3VpMdr8iFPgYZQoDT+DXg+4H+6eYqnj7AN2iYUBukhPV1MNZdGLpkZ+BnfEd14WKlHv/eGWnvNHPXIvQPui8kSORsTAQGCv6X97q9V3Tb3Y/wFIgg2vkud0JK7WhqDYWNqAQ1WrjnLtHjwxhVhpXKfPCIg5OEefWpV4G8Jr2HmCPqxd+cg3hWH+io5wDy7rV1t2D9I/XNXDDzCS/hSfA1WhH8lh1lBMr+Z6p89BepLgST/1c7fJOQh7lFQMT/ttKuQAHZ5CIfV21fRJ/e2qLVv7JQkp1/5+LozW+FI2SkiwmbpgBZsMNVEAkQp0WAh2PApupvnTVE39eMuG3r5IYd95WU7wa3scl20lbpAB7zN3Lc4EqZyZ7uJB/pyybQb1YYDqzn6W6/uVgeMu24wUZTlFk4bUOeGJhBOH4lp8dMnzjSqYDWFwsX4Ng/8iSPRJyONChNX1ppp/tlToBwKlM/PWpNnGU8/RXxLw3c1EIIBNt0tx95Q249ujQkFgceAhntyk45JO4GqUyv/SnmAhKBIc9DgTVvvtJgA0bmA/9KBu9TqnavUCO0i3EBLDNEOFH0S1BR0yGWaf9LqbnT89uA2aFlYFbrM6bucBOn8mCCFgDcnO8FVrjmQSXGpJBTwXRegSXa5L17Cps8TMK2NxBfFC/LrSAF4s3L/7CnQKAoUkb8F+Flr8sgAjaion6Px0Ihn9Pard83M+Y3UaI0tR+nlgMQ1xHiZuJVSBBtSqhFu8RJbN5Qm4MvCOEuQu+qAcMc6iWvS0fyKXFXwbSU+dyHj4zwF6kiBPlydDSW+Dvxs2OQNTYcbkyOcs9Gx63tz5mkEWL2FWiPaUEYdbk25+pJ7+pJXNKO0c4PnE9cZm4IfeMD1BTua4po7Jxk/OfiTdRf8wOWHP3nUba7R5fhfT4E6UaBKftXYpPN33CYvGo7Y6CuFg7biU3lXz7gpteWvHXqRTCdnOL1zQqeCENh1ZKtqb9f2bcl46ZJewL00rP1h8i8N8/SmxNQA2IVT+1VPx3WczRQSUo7tix1ZbsfsaKfPEra3KbqdLSwfedo7tEBo62hXEzqig1AjtLC8cOqAGjYWmLsuLeFq8tQv+JjmiiMX9kl0Ln/ulAW54ATowjn3AqfcT9PR3kHmDy2M8SwO5jXZ1iVx8CFw+yfPVYMXIgG4bu8zSFJ7T+2gv+38XOvPu2bPooNY3QoL3y48+CInXhaABo/a8MOjgx4Dv+awUvZHvP3lZLX2rM+fRQG+VbVO/Kw1eR4btK5L/ggGSp4wA6WjjUGxetcq/gPULZdNVW2dXWqEBMrZC0rNok+/3nJFP72Ka+GvS0LFcCJ0OtSyJTPom3wEM3RWvbCNFjtpn/qLu4+qZ3e8xpDYfXHHvHtin+2TrZC4ouCF3T9SGw6u4Z0e//Zd063P+TFVuRz9I+FhChJpYi76AtbaLXh+R63delItnj5XffDKX41B2oEnNv9NaULQLrte4fff+DF18+T3JooX08m33/xj9c7RPUzXn7sNdL1S91UiRxSxHH2Z4rBzae32QTpqe0Y9+uxB3tkE0EeW/S4J/fM06XYnbPKF+JX4Oi/8xKm03nIyBVEf7SlQJwrk5c9c8tngd63JBxoQC3jDJpQVxm19WQ5aK4T85+/q5e2TbbOvyQKvkKaFw3LjZeGFV99WL7y5j7b/reG8sJvjKD60TXGPv/4Yf7XqG/dPURAwteEgpUb+Gqp75ZrD6tDZb6orpv5KlGA8AQdoudhO+PD7acGBFnizhJ2RteGPcqZhLZ1tePSpJ9XmKRvVJ2/4XAKPXSe2sIDnvv3QklLusMF1F9K/y288pS4d2qyu+sMj6plt3+E1kUF1Ota30OD1p15pYq6Cf3V+1maS+RMt9hGeAvWnQL34OabJywyhmxNp9GF8oOFLOl6d07ZSbjigteeHV0wsRQjYJF5+01Xqzhn6qP2zW6JUmBNE28RnCSGI6iHg8UYBwY2/q/5ws/rszUd4kjHt/BCGggP22rf6vT0y+bBPE+ajPyT8qQ222QRtgqtX38r3ZNF3T27aSjXpba7o2/4r9AncmI1d+FJ8xq4y/yb4OpafC/E/ngINoQB/szjGf7Xyb5SfjOLQhNAOw+dmGeG09Izmiw2dBZt9NUBGvqJJELLHL0AQxB2EE1y9BJF58vVj1y5SOwPBN3ieTEoO1+oC3kb54fdMUzfPnaSe2/l9dfzMkZgtHrQF3evdJvQdvj0rLr6An4M/bb6VMBeYnp/NNVKp9z0FGkWBnPyp0UnnXzudhHwg8cmHTahIWH+TUBfp+nUdwnHBVRMnp08hbFyCANomCyJMMGVPMqTFS/3AfVpPXLDLnnJpl5yYlXCr+2gb/r7wnnY2NcEMhsnLbpezHbjbJ/hjGuG5oDNpa2aN34xZnF/z8vfQxeSitb9L3uwJ/1wPCuTlT34DLSCvq7bJQ/OvdM0wTlXa2p4MfFMTBsHCa2sDgWzns4laSRBA25w31c5FYVPo5BX+Rh7g7aobu1aK7LRhzIxyHZg2JSqtfUAGC6Dmtka7j0AXmzasnAQt4T6u0L92Gbi7Zlm0zKJODsptmN4m3xQG8ZXWhQJ903vqtsbktslDo8diVg4/2tKWbHuaJm8LeOQM4wLBh8EeEwoQDvhLEbJm7bLND/U7BZFDuMokE+JhFljhudIVB1J2rBjCAYuLrezwJgSHRXRMYGwu0VvZq0KbaWv0Lwox+5j71tE3ZmWHdh4Pgvn4My8fm3ATp7Ted21NGvjnsUiB+vGzockT4cQmxLsV8obrR/CYUMioxtb2AKoXC/fmNtVUI9wzUIon5X1jiOdqidDSOX1OPNImcCdwRqTZxxlg7qSq+BW2TGgv5NLy69TMX1nzAVBXb6facfRt1dklW3+TWS8ODYeRw0OXwue0B7niOS3djLcXxs20tGcTfxeMLK4jraMrfp4FcVltRXo9nYuWaec78uIh9LBpKfF5yzHh7LLMNOdzGj9W4tcK6aTqkm2TakT52i8WzjTZdOrDNrEGVdDUYrA5A9fMmp4TsjFgplkDi5djzXV3yvcorZbVoW+tGtShndF5BdgwR2CbJKBq+deVf2goWuw168eAx7ZgUwBK+m2L6A4mdzYBiXxSrcSNBAcARy5FkwDS3jq+VkBC34Z5ZV+0FoRDZNN6bg1vDA0zWQ/m2RUriYO3Lpyto7FaJ4cVWfhE0J0dQ2S6i8LVPl0c1m+K1ebnfETLoeEJdK5iFQflvqwsASv9CD7GWY96O5mAgFuWqxc/d8IQBEbHMKnGH7jCLWDbucysJtU/zXUffP1rHVs1yC4ptEoOmXELXRN4Q5se2eSr4dssfu+d7FBOqG0i4HHu4q5bb8j9llgXshgT6pfpOmyYulauWaWmd89WM3vn0OGxCcq+dE8EPMxwD7+XzmvcuLi5bSiVMO9iGnz5ieeYDp+8/nOJrb9S3eMbH+NH0OHDt86nV5UJFQ/ySV7xZbuxhMWXsyYShq/PnaxSU2b3qdtm3qPODyYX9pkfA02+bH4uxyZvtqiFns8PGSqT4BXY9SVYhg9mMfdzm2W2GVcGmPH+uTIF5DpoNyQpJqyb1Mfv7I7zzt7TO8IzD8uvX9h84WiYAH/947eoEV7fOUB8+EP1vvkP8JkN7IYyF8oh5HH2AFtT2y9f6ibrKI6F6Q9tw3j8nX95Qk3u+jQrJuZpadAADnT49fuTJ7prbb5L+CMOO+zuf3S1Wj14gQT9vY5q6sPHME3SSxlNH/I6FswkhcMOlLcd36+WL0guYNXD9n3uYnw1EJ3aTGfu57ZfsZuJVzV1u2zvaa+49ehbG+dY31bLrzn4feKkOA/to/t54PDxG3sx38axGWERcOZV3YOGti/CrV7nRprR5rQ6IeQvjgzzRIetvyYdxMbejG3Nv/nhBerpzd/jrciYgGWDSNiOOvFzzTZ5/WoRohl/mDAxHq5DSGt7ca0rqxrs5pAxngXn0ypQILgxsgJUXZPrZcPkNwRSrGzH6yuGBm2nNy1sCHNzoTx+rkDx4Tbg2IqTVK20s7femmdn7LIxCTTDiZa/6dArzu3W9eLnmm3y0WtAM8im62TthUxrzXJgmmbj0Oi2L1+UXFDmCdQQOLXilD0Y62eThxaA21Jt1915PjrPIYnUXvtsgCSZh/BiW0VDgHIezDco+61WTDbQYD9x/XBSwKO/WnHiKkAaW8BLVtn6a092SOf+EMAG+cDTnIRRbXRCvn78zJq8bqPsUhAVpmg4H6WgRaQOinxFVISCHRIr2rzi3gQmTjCVAwdzYFZsUBMBcKBtak7Fh/u2YXv/iT+JVaM3yaL8mgFP5Z49RVdNG5dm7j29Uy1w7DFAP6b2Jfo9cK63x1DQpAjZMB1lpMCkCTipV3Z66R1B9GEKyzH+QZ+ZE1GsbitP0WAqfVCQQaOscjPLcGTM0uQd4IyHWYez/Sl94CzPjAx4BH2FjQzug5P142fS5CNsjEeOLBqOSkp/AvHsctOhK6dkL85Vzl9vCHObW73rqkf5+FTgNdMcr0l0JXC9natvzYVEfWtfhIXNV1WH7YxRFaU+hUIlRdBlocHjKCWfiaR9gC1hqjHKYHyCcFbdZvmj8dm1zoR2mMpnM9pfL37mnY7QiGCHrNZP62jXdqKQsdMylRzf6PpM9GWv7gtbT5jR/GwyVCKxhSI27Kc73nO6RtO6Wn6tlO/o3pOkycfPAuyj3TXsqtXmctIwL1ijaZ0Xr1aFq3jvUoP6NW2CAd0q8WW16e28Tx7TFvbLV+m7OnbupIWu6Nhs6QQoGAlzgvnxbPmEnBRjv3bVQ7jaGieuGxYHs9GjP9giQfbrgUOsgpICj64+o/BRFnHmzpaR4Etfkga/3u2K9231/FqRz81GGc9ZA9QAa8nHJTMuo4WG+I6hlkS0JKSWzqn/po9qUXVfg1I/fiZNXtuCTF/vLkjG65kEKj81L8h3YLvcJRJv8rxJC9TK546rr3zvjTChHkLAFrBhZfJgztD0KloPDQg4LJxGJx4dDqfc1u48p778xMva7ue4xMuRrSWiVr3dowYmRaYa01TCdDdf9aldZbuVa87G6CrfftX15ONP4VPTN/nXjBf+hiaf2xk0yJ2nSYAv7oi/nTQJjYZUC0Eqn7psSIU5K0nfTBDxcyX+LJrONnmxP/EVCBIgpCUsURKW9thhiYe/YsEH1Uv7n6MPT+yiz+SdUA/fNVFB+0tvpJm78jOEDIQA3NKBSNuMCwKlvkKnAfEJQWxfqmaSQT0unBGPP7xJwL9v8UdDpOWjJYiAyQaCfuUzq+jvYAhjPpgr7uYJU4GptwaJNsDB/i7u+LlJatqExeFWL/PthNtDpytf3L2OTwveiS1pF2mhskpn0he0hAv7tp9OZTocvmHLfEk/lfizSPqBrdG1CVKtfBt4NGrCsVPK0iDDb+xiuVGxf0xQQPhZEkS+FuHfcDBQIZKfdtdoxRwFQUFHAvs5wwxMsC6Ho8U4hLF26xb1KfoeapYzBV0WHNJMOzHMCXLFL17nRdsU4froU3TC7am4uaRS+UXSUf99i+eHOJjCUMqBUMREtOXopoR2sX9wt9ofbcKgci6XbKH/rVd3h8/2wwG6IbIaZ5q4pE5Ta186O9LgQVdz4kJ7YIZ6ad+TZOIbUU8eHyYUIlOAeSDHxC3tbefJTSZUL082S/s1HfBZRzjQVfpWoKvh10r8fWD7USl+VPquy/pGZUNqRBqKg/nFuBqLa0j2evAz+N3YJy8aEdmGAsmtZ5DscNrn/0AVCNpPTv0cn/DCAQCXC1+pKl/MF2Zf2q8fRQBIgn1XhylcBUb8sF6KMIWbpJu+CSvxyCOTi8RBEJnCUOLhYz8s4O08eQ6X54Ex6yrzOa1N6Nv5U3+DT+1Fe32DmqP5oRRU7EkGhd509c16DYm4tQi/gsuz4ZMo908kezZcCxwA04gU/71yxuXq+Hn3m2Tx0kZHDihQMnZw6lXkg7y5tkIrZl0+VanXNCa8VlSRPyvxbzK95hOveQgFAtvCTfKlxUt6Hp+FgGl7tzK56nDFWdnCYB7YNGEYFjLKHoSmtvbc6Gak0fX08bMwp7PAZg2IENM+2TbpOXwzpVCR8GtPF3zrA9+NIrt8o/uvmfW5TJ9Z+LTPvqbu33gQc6TgcXh3tPOuHvwMhUbb5INRIDacQr5gm+HDLpg4IJQBXyQpTQhIGdgRMqiiK1klviw/rzAEngmNtywkqiwHuIsT2y3o1WzBDpxAr0q48Jsm/RTi10rwQpCcftnnPnJWmxvM3BHFmTAhZShEuQtucUBznQeoivzBG+iZiwd4A4a9865RdDlxlnbfTYkTEBaRuvAzFRra5FndoXoxYCDz84bjqCZDciHQ5sOvquFhvcCXhIpi9tFn9LJcR1u7aqd7rtvbOtTC6VclQOXuZkmAwOqfPDe8DEguD0On7z+1U/1k//MCmvCXzEgecezs0B+G6KTbJTvoGb45h5w6T69fKQ64pbmLw9H1o5dPdS82puV1xTdKUMM8xROppc3KoHLhZsdhspFJBmlpJi8zH3iUdZOC/FqJv806zOdF0+YoNdzau1NsLRH4V+KDeuw2M+nWKs+i0GAM4iT82u2DavlNFnYWD1updQ0e3H6sLvwMfo/Z5HUtkU0nTxjIpTksusrtd7jcqbOzQ918mRaCQ8PaCN9GWv5LW/fRBwq08BwQGRmEOzv1HSIbdh1JVLPn9DbFH2swUuTjATdefpl619SPhXdKh4IjUF4FN+B189zJqq2zS02eQtOeod3SfhO1dkvQvkt6ghJRLL6y1xIyrgDYfvaFENOh4Wih8paFs9TLOw7zxw9e272HYbCegL/R4CBIxN7ZKHyh9WjNpxi/8nkQZmwqgGcJK39KA85d7FYv7khuF24lIekS8nZzgG9Cg7WBxkBY0yK6f0iUCGjycP/3U2fUE5aQb0Rf7jhGyoLhZPJB1P5tx9TAFdPYBMkgLv4kw72sKTn515GetMlj/zvVgAHEfoUwI+P42XNyGwt4vDY9/P75NGsmte4oW1ZaBFXkCfvzH/3hY+ojSz7FH1EwzTryZRh9t3a3ap+9qAVeYRcEzbuBt31iV9BoEfJF+qUs2MHj53Lx50gF/rXT0/C7be571Hff/oZ6YdNutfw6vfMHW3Kr2ZabVkfZ8eB5cXjDhOCzrzVoZfwF92p8tHXahOudWTGuoORd+Rv71cMfvJLvem9EX+Jw4ZNvHlEP3vhvQrxk8kEE5C2f2yAvr/y1+dcVrtkmn7a7Zsfxt4Cywld02i8vX4hz4Rk/D79nmlq7eb9av+9Z9cHF97M9XGy88vk2/ngCLbY0yhaXgW4sCXddP/vqAfX2kdfU7N55bMoI30RikOM7oDV5bWLEqCjFNk8k7WyPNECh8Dw6wY1X/U/9+UYSDOf4XvlWEpAQajhbYJ5QFtzhi6kQ50bkLvVWwt/EtZZnoQP8B2/U229Rnjl+RHmCoH+UtlfjD1u4sVDrOpNi2/ez8EO9Lvfstnba+p3sHxOv/WSXx+dUS+FjYzzU1Sb/mVvnkuYwy9XmhsRBU3/gW7vCuuRGPkTATMNaTQsuQmHw3UTHsjfseUtNnTCLF41MZggbNM4f9JumaECaGJVs7pXSs0gK4YBPx4lgAGwRAWCW7RImZrr9nLbtTw6wydkR2VYMM4DJMzBTAP8n1m8j/J/i4oucTSm6U8XGvxFhEbA4A3LfYvOAZPRGI3iAFkum3ahwHTFvkSaz6/aju+lPKfvsybdenZWIk3Iq+XIeBWdRzEkH+aZPnBnLrjX5cvkZ/B7T5MVOIzNJrnAMzSiAq1lvpKD9ehhB1O/JfvWSe6XlRj6Ya+ZNrf6EZv0w1yWzhjVCH+0ynNwLbkSN+0dbk8/Fr4aG44RPoeq5i+d4fecLK76kntn+HQVewj7sas9OVZsvBT0Sah+JbVN2rZFAsOFrRFumBofygvUktKORTg7fVVunC1+UiUOJcOaWZ9NMa9YnF5YBVuCXmgB1fOYJmJRLe1G8LvxMhYaavGg4Rf060sJddIUVcBbwAUwlLcu1AIX8YXyjtXzCmwW8u+U+1qDAIPbJU7gov1aClyoOntkrjwn/jnn3sPmvUUIhgUCFCFtDtMFNwYa0Vm2HjbeE8+ILOtiCVMpohp8m3AUXU5OvxKdF0iNNnmqKzSQ5wlgNruggcLOEZSCQeWU7eJYyy17txrY+zODdncFWOAdePEkIApYfCn8rvqxgVntNU1NZ9Y32coryay74UUyUNK3VbBJvdzX3/JqJY+Q5Dx2KCP+evm619+QO1d0bnSs5f/YCUwt3KKW5BbSGg4VVOatQqc7+RfSVGmJSCHC4XPyaA74Tp6wiR4E2LjoWFQsY6cgq++AjmOhpcndyyxlS9ZflybeEepSzQU+VJiALjabja+Ez3oPMujXwL9PPzl+BqOD37bSpAH9w7R1tqos+FYizG9sPvlMhdzJZ7vPBZXCuqzKSOejupgOrOXrDwTWuZI67apY2XbR1xM1+wBPnVXDnENzw8DD78yfPUj0d14WmC46s8AMzKBxs2vhcIgShy82bstAVXVpcB52Zgdt3ahedn4k6dMH0JRy/cMZVas6EJA44PyNmGyhR6/Y+o/bSB9v3ntrO+Yr+3DKfztVcuqRGLg0r82NBuOb5/MUeXhORLZyusoG5gb4GiZqD1ELymQugLJ3c1ygIfQ4Bzr6EbT+eDtA0h6uGlXLfleGFZRrV0uNlPSEdYvyl6H3FNLCq5N8oH9GO+T6LoxVvu5NzH//+zgWqvadP9fVqjU4XoPdgoydw82mmO6PPfeDDOi/SwRyljqpVW9eouTRusO1XhA+0P9lmB43wu2/9idpybC8v+H7+nv7ItJhZmZ04IYbfWsJh7ZY96uTgNsLhtPq56z6rLp+SfiDvnzZ9Te0+uTVW6K2LBtRcYx2xq8PUcDfGYOsV2LWLVk0Nt+OYnnSf2/oDjsWFibaQFe36e2//qXrn6B6FzRqqu18tv36hUZLiW2xjEZUCpEBCzuHQ1Qtv7lPPbe/gRfvb571PwdwHZy6MIwzui8vjILJG/m6KTR5mj0YIelltBwHFYcbOuqypUbgJPmm++8MCadDjMx68z8oNeUVslDxm6Mflp1ESWisEPITAI/cOqDZsva3J6UlATl3CTPjCxh20G2wna5SyS8ZcQEX9EPDYloyrs2vHQTcAZcHhDfsrTw/TVsyvKSwwY6IRIagh9UQHAZ/v/Ivkaq6PbaPYEYWdUWiX7fB2JgIe20tL2SxCMg6yBP2LM0IP716vfv7vR3jB3rzexBT09eBnjAt+lxP9pVrfJlrFsMMWXjFPDQCyem4X0YiJxq7Th8ujQLX8mpVvAHZRh4NJggXbionlCAGrDggWlI9J5PiFSEvGbhhxMsmUKeClbPgYDzg78plb56hNB19Wx+ht43jwxoF0CEPB4e8+e22FA47I0RoOgvvvflUfjAL+tjPPzZQi4O0KKAyB/4+/1KPOXXrTkaqjsvgSENWmt2P2iP70adf8YY1c0V80uFlOFkGaVb+vtzwKHKTDIxGvgo+L8m8SvhJ2LATqyL8Qsj2dYgJSrPkBJ1n7Qno9BJG5q+sS2ZTFHJN2B1E9cKhE+1rSl13WzpPotmNvqoOn9oV3WUmZ4bkZiSjZF4US9/2LMzV6xMV5uRx+RpntsAFhhtB/dC9CoTBQczvsk/fOU6CeFGCeLcSvlfkb+LpOvF4M7i7KbA8W8vFXhTOFrCkITCELQcSu5EmGd5SRuSjNyfqApC+/dq48jgpf2oe3pH2BXIKAtdvlbAz1p+QXn/u4QD8jXx5XD36GPA9t8oKE2DbzhDFLZDnep14yQ2bVlyctZmN0dBQ0FNn9k6c8D9M8CjD/0Y/Jh0X4F5jb8JVaY7+FhgPfkZFhA/43nx2gmecjYLKBSaG78zy99lsnyCGE6C+Gl2vMOXhdtEtbCFVaD1p2RZ+rCZltcGaoMTLW5pSyuH+CtrM8Ijg5HGl+SETTNm5hSOtbCGNxZr+63m7SypD8pjmuHvwM/uZLOkykUXnesA0niFf0XUxYMVNxANfCa8VSGoRbRTwsANlhYUWP6+ABugEVp6ptPqw17CLq9ImDaggFF+APFqKBgBGcYkIhKMsWsq76Jc4WJKiDBYkAlOBDGFbz6bwi7SgBzUS/l1Fm0TJifRxo7GEfo2+C/s9TrvCI+JKn1nCn1oLwi6KK+TqvoBL39RbKyP4UT/UhT4FyKFAL/7r53Y3XzhOH1Nwp7rQisTGhUCQjwZ6n646b4eyDeE4NuoAwa0YbpE7XfT1Y75g3lSAKTOBSnss3+9iVnhYHXi6fn0fIJk8F44bi0KeHWDgzPQ1dI97V+a44I0sjHtO0/EZrI41o61iuI+RbaiTzbSH+Nfg+yJ9Fq6KXimWVVXVaSYKoUv3mDp8EbINwSNRbQkQrX7TGvFwj/+o11Thf8xZKmUF4FqGfWJgIGws70l20x0JVqiBtkpCXC/rfOHiYUXbNuF7Iu3qzteMq8Weh9KJNbRIvF0WzLPh3zbbWBMoqeJyWI1+qQ/PBp/iJ8WsQL3HVpIf75LVGhFq04aZIWOeK/+KINk552UITYTsunrO8EO7Xlqs+UarYteXUGyahEBcarK204ArcTWcemjDj/XNxfhXehg9nh3Ws47ezOeYSwcQ8Ki9xjfBNQdSI+upZR9rbmDO+ARO4yCS0OY0fbf4sGo7b5HFxAvR9nkscvpWO2SXN4QASjkjjBN0jH9Knv1jAN4BwEN7yFmFeayp75OUDChCka3cdoP2zR3kPbVpbGh2PL8jAyalH8ws/jcalFeuT/gNumgfxS/xq8WeCj/Okt2KDCSezzSaKsI9jpJbtdhw/QJWWXWprlDdnMl1/cClqHF9Y2OQJHJQBe8b42ZbDefjXIb87NYMEbMIAqE7YxvKtdElFDpfDXREv7d6ilvyOPmV2zazow9jmgY+l9IGMatyG/VoY2nnDDyj03xUTlLJ9Uj6gMEyHPlau+RF/UUfKEBxN/CQtjy9154HNgpEv/Ngff8jKM97Swi/cC79a/Jng45zpHR1dqn/ivJYhpygnjBCUJNMmbj6XhLFsNUwtzsYhFbA1E7bTBHZFCYvoZbcO7KllqkhWy8/Jv1KK+IEmL+gGGpEEE348Xc86CaAwAsIUf0sH7lJbjm4K4+VLLBKxwTor4PoogMCKb2roEic+Ph5gX2UQGygEKB9QuGbGzbxvFnkZLykk+KACgjY+WXUv7ZcCivswccGZuPfVYRAXx6x1c8R5MM6fSazzpCdzIQa7a1RHDZ3rLjYRK2+giYQmRpgHspqIRmlV47bNVnGmXAJ3xvnZxjIP/8rEEOUNNHkd0UbzSBIkArbTs2CjXPrJFFzmsw2H8FJXZA1xMHeIFu8qRvAR34YpGx+7fFe40gcGXHnGY5zJgzZ/2vTIk27nqRQeq4fn8EYrh4ZMGrxxCJsWrjajRv0zLidTalqiHfXqWxddpXKTnyVO/Dz868qvNXmx9ZDfhlcCI8w2eiNspiO6lV2ljwdgFh1ssQ8oeOFejKOYBVP408XHJv+60jNrp1sZm+2wIyy2T70Ba1xoM64AkA0LLhrwTjVXQovF4YPaAw7r8PIFPUlMG/0WTcxs83OW/HXxr4u/tSYvtp6CvoAnqROPaaQwFSEJDLK0d0mXRU3sIKjXaylwynJYYZfXtko4Z5Uz3tJwYyRrLsKIZfkOQi6YOptizTvSNVAjhBt4IkvAOtCtOcpekzL58oXN++kGyvgVANXe2VMzogULwJrZgzdqs6i5s8VVTLjzzpVYUpxJV7BvPfi5rjZ5oQMaYn6FBfE4RWe7vFu1zM4R4YiyTILZZaeFw62JlhzOdXmRo9BqcHAU46MyKIB7XEToxV8mEeJhkpK7cvrAFdHmALOQyV1XqJXPrVO//m/MWHouWZO2t87aCsLaPZfUcmPRsB6CCOsCEIb3LdZtFUUIIezy+dKqw+r/pTvSxTVq15zUV62PXWuyocEu44WtJ9TyG+OL2mXT1l5vsfsW3BnnZxvLyvzr4v9Mm7xdZCWbkI2SHTYFoPkcwlmCNoxvwoMTvybg4atMpwAEsinSbf6sxL+V0l01f+V7b6hHPvIuTqqXcDPPdiRw6DJsDTTB1ONNAsIInyV0rVFhwwI+vvHl/7lWLb/uMrVs1mBdcEi0u8YItGnV2z2qh08G6cJCBS8o2zSF1ePMjEzgLrpK8+L8HBfZ1fJ3RZu8beOJhwW1pH/+YvwwTxLCx3gK1EgBktIQ1KZtMs6fyTWmiukpKN0w+w519NxB9egPdyh8Lu9OusRr2VxjC5aRr+IWRAMWjxBA+Htxtz4lft9oixjEAABAAElEQVTiu0IIe3cV6g7d8V1qZChpQgrTCzygfrgIh4+GuU1hiDcobI1+Y89aerP5SQiT9uC6K8YFK9cNOA8luTIYcSfOTqI3j+zt1AC/b/H94cRlvp1g4lq5ZhX9vaaWLXibJOuwUXr+xyzcRcCbbxJ234KZS+dnsgE1xCafn0we0lMgPwXqYcM0NSkbk49e9YB6/fA6dfDkRhJwe9RKG6CEMISAaHp4nTffKCGM/tdLb9Cn7NaVUJO7CNT/4I0rwkRTGEokBP2M3n51Wd+9vAMntvVYgMR3z4OSyr65RXm7MYeZQAeCj4anv+XohVPZ3izbkWFyEnpKeaCrOXGBrjBDwQy48/g7qqMd39wt7p6kXeLnhiJzhOCCkrC12vxQO+hq9i1g6sHPKDehyevVXNRIf8auhfgqr05v9d01hKV3Y5gC4D9b8ynCvy7+Rnmuj4YIGSEQhobv4U/jSRx8bIur1dnCyNb0UPfghbvUirmnuaoy6hSc7boRD0FkCkOBhS/rZ8jnymvCVnpu5BbltDZh4sIfPrKNzx7W09mTjNQV8TPF5JC/Lv518T9r8niF5TJDP6gjDLvTYwZRwdT7ngINosDAFXp3TbX8m8yXfU5EmuXaNFCroJOy4bMQoO17tqan06Jtv2XWadaP5zRhaMONhjDoCYdJ00VTsw2uvjXTa33OoqusMbWRMI7LY7f8TeNfO3+oycOoD70IGTFD5AqzGpXe7PMXz9HXbBz7T9Oz+BRPgfwUMDT5XPyah7/z114XyCwhgAorCalakcqaYMyyWWDSDrl6bj0263M9i/C202T3ney8qzfN7PpdYfQr8MnEBXK3iPzNw89UXtwmL6o5KmIX+CnhMNrVKh/nKVBnCvTL7pqQEbP5VetHhFQGfD/tvU9z50hpOUEfmIDt9sLF82rX8S1qeCSH0TmlwI42vdWjvb1ddXZ2KvhwC6YvSeRYNuf9YZxsRza1Tgjbvad2qJf2Pqv2nt7BsCNBO9tgByC3aAZ92vJSEl/Ua+LCwPRz5YzL5THhnzqPr2xUdrB1wwxiuqztyZlC0CykTs8wT0EYC23FLIXq8pyjkYnHnGjytkn6K4s/udkZ/OtKDzV5bcshZkABYIocfsA7XK7/8RRoNAVYeOXg07z8rN9g01ux4cBqteHgGgbAR7U/fCMmhHY1qfsk3WszgWz1hgCV07GBqaCNBMe67Sc4bwcdfstyF9SLYfLF4S710rYD6rmtP+D7lvSawAXWCE3hsfrAKrV61yoFvP7wo9NVWx/d+97VS396y2VsV05YuvUgOIfRe8MnPKylveSh6wqf+GHZ4kjoD14IPjhOKS9u3UhbLveEuAPYxJszt9gP8AtxzO6qUjGvBz9DjqfY5G0bkDucdnCk1Jb7wjwFHBTom0YCjBgYunu6bbK6dFTX1taRqBUC/vN39dLV2UuU/a3VBHDJEV/5wTu0q2aVmt49W83sncN2+2kTZ4a1QMADt4dXdKv22dfEb6okqOVL0t9QwkLq9PCVH/Qw7i6tvk5Vjs5i68TP7fwiB1sQHuCDPAXCWdQ8P+T3ymfRx6dVT4FJ02mtpwp+zcXfDrReP6S3LT68YmLDBTzQQb3Yf//64R8ydjAdiNkDAl5gXAKeE5v4g0kRbxjnLp5RB0/tox1CdLLUuyQF6sTP+huvmEGgEgUzCWxDecNJTH2Mp0D9KZCXPzVb5+dnwKc5HOxptAZv4gJNHR/zkK2Tg8aVCvgsH+PW6Eu1TARTnnEy+Cb6ZsT2Y28xxOD50+EElZJlXEXjDcd8My0if/PwN2vysAXR/1Az4jDIHMwsWenjqjd8Y1uGApOmk7kmB39qti7G32mNxMdtYjdApgGWHM/XJ5CgzDpJO7nHsJeXXH+txfEdMDwr11rS2M1vvpkWkb95+DtukycLJ2aGVBunI336XLqNbuPYJb5vWQtTAG+cJr86+LOa9F20g8bldG2ulAJxhvadJ5frfhycMMUeedNkg7JcExALWDOtkZo+7tahyQluaq8+wMUB+sHulXBxUyLHsW++mRaRv3n4u5M1eOy3DAgc7jfOGc7qF2w5My7MywL1aZ4CxSnAmjyzedX8m+B3GQjFsQlvpORLwwxhXo9LxAQ92eonYdsXIQsq5XGuiSJPvnq2MU/9ox0mejMtmZ9J8enUb1GaBcDf+il/WIjbRVvEvPMUaCgFAk1euLYa/rX5HXvv4dqDPex52oMbCxsp5OReljy4QWgXwa0IbJ76TRjcUSNXGPD+8wZuTzTxaNnnOvAz+DvdJo8Rk2XzDNJblmAesbFPgRz8qdnUYZPP4O/RRrjJ3a1rjx9ttGwWvltf3qsObD/Gb6TONdAMfq0Ez7treFcNRL7MJPBzhptFFF+vp0A1/MqaeyX+HqWkracWPkpJMqrQ/pe/XKctKZX4s2B6O9vkoRHhgX2iS4EwL7yOKlJ6ZMcMBargV7B5Rf4uSKBmbqsUVOU+eAm3up/nioBWb0M98DtI2nxF/iwgn8HvbJPH4hM0HPC/9vOH9dTjbq7/cIibLj62dgoc2EaDARoNFVUL/7ryp2E3rVd/Banaxcm0ckuLNxZ7SyvTF9RQChBLG3xdXB67+NnQ5KnwmGaULyzbGuRinoZSxFc2vilQBb9Cs6nI5wSStvDaTAEv2rp5xbDctJjKCI3cMpmKhE/IS4GD+GpKyXzdHs4cmAJILyoaztLk8zbMw3kKFKXA4HFcmVGcX3Pxd1FkWliQNnNSyiKjVwrd1MnFnwTEcDn5n/bJQ7XBK692QTB3OAQM8nvPU6CeFIgfVAp2zVCF1fJvGr/Xsw1ll5157S9NQEW3UZaNny8vPwXmLKaL5KDJB1nS+LNIOtnkR7hAbcsRG1B+f/ocfdwp7bXRfzgkfwd7yIIUgEZDWcDwZfoFsWgqeJ5To37XTVO7qFDlfE6jZL42TrzqYRKdAMwZlimlUFM8sKdACRRgjScnnwbTQD7+LgG3OhQhNvm0oiHM7eEoJ17T8jQrXj6q0az6W7Hem37qSijx5KDJl8fX2iaPAlEm/cRsPUY4Ox15vfMUqD8F8FUmOL61Lzd/FuXvZDv6++YlI4OYZglSp13b2mHTLNxSieUTUikAIV+d/M3mb9pdg6mD/gJfwraflj4DF5R55ynQYArwrX3QeGrkX1f+Cb1dzt01T73VHV64Jc2FEG2UIF255qwaoIvJxIk2jKtq4aDpX6IrFhQEPf3huoVWcnP6os8J4jN73kUUeN8976FAxM/Cl+Knyd886XGbPMl6zCQQ+1DsMX4qhrWKr3af2qYWTbk2wto/eQrUkQIf/sR9VLp+8yzErzn424V2/8TL1MZDE9XP/PlJ9YEbXlaP3DugBamlObvy1hoH4Q0BD2cKSikX31CFoH/gW1v461BKvczXEmddTSx56+0L7vAfvHEFV4ePWnsXp8DiW/CmWB9+NmzyutK2NhbvLOgRUyl8x8136Iwpv92d9AUf7zwFSqaA3n8AzacYv+aDdyN778JPqHeOvaZWPvMc/R1koGtm6QvN3DnisdfMmkYf/dD54inpoQ37B8PEpf13qaUDWlDCVGNqw5+84XPquR3fV09uep0/LCKTQpg5eBB8Nx+mw2QNcgunDaj7Fr+Pa7PxbhAKLV0NbqCsJz93apWdBooeK4FfLHzTNTerfft2JDT5qT35B0BL94JHruUocPvS2wkn4VPxdRR9EKFGfl6q/vnZx5W6LNnsFQs+qO68/KcUvm4kX2iyoXDfu8vtoHMupIu7kpxxuG3yvsU6yTwAhZg+x978W+e+m/C6WanAomPiZ+O0tN9ZZRhZ5KbLMJPjIQ/ejmzjJmpg0Qy1afXr1F7i2Trxc6e29VD5eOeFq8KHDRMLYt0Le5VcZQABP6XXC3lNVP9bFgUGFhFPQYayLR5+UHKJ/orlK1jIHzyzR8FMIw48jTfTixeGOMoWYAKXFi/ptfisCZOAz7N10sTDfK6l/mrzFsG72jpGWz4I+C2d69TtZA25/eY7Nfol8jEXSOXR7ho9g9TiP/TgQ1ze+UtnFAZC/+R5XsCPNo4bBfhiULCGTbjWwq/QmLLyf+BD9zI13jj8k5Aq3Z29IU+nnQkJgev0AFv2tIkzUwV8s/DKai6E+3TCOQvvrPxjNQ28PP22EfXVv3lM4a00ix8r8Wul9MgmH8wgoc2yQBizEGajx195TK2Yfx//jdXO8e1qHgWg9cA99OnPkSKvGbQafoX6H74IiE3f4vcHPvYZ9Y0n/1o9vePbau6khWweeef4a2Hj8UUm/vBFGKNUWSYOKbKrvYsfe7p6VSc9nz97JmaHFzjxod33T56rBi/Q7hpygl8ZNz5CWLuc7PAx0zDZyMdXJnSW9zGhA9vY3mVWNeqecWIbN/c+s/Fxtf7v1jEvP/TpXwvbUQ9+bju8+ag+8irVQLEHw9t+hfT1r6xTn/3NXxYodd3CG9T0S8m9xbLdSwCxMyCPw8yX5vgVXhINvHEJf5YTpokflY/nyItfPJcPlUEB6Zf1h5+mffE96tXNr5DWc4f62h//ZWH+DPEx+CPG5wJgpP+3//Z/qfWvrGdTpCR731OgDAqAjx/69EPMz6HJEQUb/FeJP/Omtx1+6xiKLc199W/+O5e1fsN67ZPw985ToFYK4E3xoQc/x2+MtZZVNP+rP36Hs/D1xkHmmGJBcaYSgskoyx3ddzKWfGyf1rwRaT7HgHIG5LBYFrg+SKYh9HkDOVwmcb1Z2X1aQIHTx/S2VhdB9AV6OkXofc897+UI8HIjXdsh0uT51TWYQXhfPGnyti8zjB0v4aLp60j4my8M0JgQIeXZftHyWyG/2dGuTkW64JnVvsHj51zZGx5XqT1lICRvenilvfLWy9S0OZMUb9NtMH9Kv4if1T/1HD/7t9In4YKBcoCuoRV8bN/Gr/+KGZxP4Abw7doxNr5AF2mf3X6JF39cp5etyZcx0H0Zo5MCYv4qgr2dBxqxqRUXKcvDegp4CiQpQOYassl75yngKeAp4CkwJinQqVdZx2TbfKM8BTwFPAXGPQX03TWBzc+02dk2LB8mXsmwAXr6ePp4/ki3kfvx0cTx4W3y436i9wTwFPAUGMMUIHONN8mP4f71TfMU8BQY5xTwNvlxzgC++Z4CngJjmwJekx/b/etb5yngKTDOKeA1+XHOAL75ngKeAmObApYmL9tspNE+HF+z8PTw9DDXsDw/eH5ofX6I313jedbzbOvzrGgg+oiHx9fTQyjg5ZdTfvkTr8Ig3vcU8BTwFBiDFPA2+THYqb5JngKeAp4CQoF2rd/jnVfee+XZhzWRPD0iHgFFPD0iGoxNeux8c2/Qz2OzfWO9/+z2kZAnQxbfZSpfy4nCSPLpET2YTAa9PH08f4y18bHzzf3qH37/ewq+5++xwd9ak8ely6ShyXcG+ZJmaGxBvPijPf25f36J2yntsf3R3j6Pf/CWYfGt9HMz6POv335J/WvAd/Wu/+//n+8q1Cfttf3c9dMoYW3eomPu/FY+wcPnbw5/ak2ep+xIY9VT+NgL73prHw0CfJwZryhjr33yRubb10r9q9TzTwY8F7wx16t/dm7ep3bRX+3lUxFwdcbXlx/waZ3lUbBPHpVBcw98rrR+YbwKQlNYcO08+psDbqp7/dBwdr5JAwCTKbv6ta8R7Wlkf/n2JPkT/Pv8Ez9REKwLrpmr5tPfuz9xG3EWGMyE19xWS3+x6YTKZf6l4sJ6rPE6MH8m4wM4HldWuoxvGX/A7N2fuJV+I3y1PR4p5His6PbIeE22z26vD5v0bAV68T55TNh4wxJf+lzCtl9t+vNP0KsrDQzT3f2xW9V7fva2WP3/SnC7iFExgMSZcFI/ygND/9L/8TNqx6Z9pDHhVZVyUHvmXz03LBfazd//3nelKPbN8tA+yS8DCUDv/vit6u6P3xbSBXB4JZ5/7Vwa2PNIa9obtue3/+pXQjjBz6abhH06EdfgN6GL+K1OH/AnBLzL/eIXf0YtuG4um2i0Bh+HAt+9m/h9J/HrP/z+dxX4xhwXkg76gG9ZOTHGgZSGehZSPRi3Zn5Jx8SDcWGO67TyTD6HSRN4S36E8QZsjotf/G1qI5Uv/WX7rd5/4w2/ji9+/rf/qzBGPX2YSYR5PvzL71NTZ05mJgbjQQuaOmsSVy9wJ46cZkaCDwc4MOwCErDiwHivr36bGRBlnzh8msqZzJODCX/i8Cl1ktKkLOQHk0pZKAeLTciPeJQBWH79pbQb7r5KqlSvP/928PdWOAlhYEpZIaB/GLMUAL+Av9Dvv/TbH2FlAEIZvHPjuzWvMD9QHOkFTr4DTzIv/etb6u2XdzCtdP6reSyEPBmMAxkzUt7rz79FCgi08GBMUF0nqczzZy8wHkiTMQUYuzzw+A13X83tAJ9D0Asc2tYzsVttWruFx5eMCxk/qEfayZn8T0tTQO+TB+cQk8gMF2Jsx0tYACRs+1Y6az4khMF47ybNGA6mGtFooPmgfoFDumhEiAcT/gNp4jxJsIlHC3poGOyofhMe2g9gdXobaVbzCKxN7STNCQMJ2jkPwgBvCHg40VA4QD/QtDA48PbBeAPecGF7KrQ/pKvASRkStn2frilg00XCTaYPhCCc8BX6l00oFn7gbyy6gn+hsYd8wLkBrCeABB9RfMiTwZsBTyLgYxoPGAsoc+fm/czPUj/4HYLY5m+kx8oTRSnAG2UxcholoKUO7DrCPiswVC/GDcr5vX//F1x3CG/KDeRHWJyEbd+nawrYdJFwyfQJdtegVOod7iDpJSMs8eIzEvnTYXoBk2gBz4WE9Wnboa5fXoG1Zky2+qA+FsykNcHh1VQ7qT8Q8LDtB/DaZqm1l2S7As0naC/vRqACuU4wsi6E/bs/pick4B+VQ4/kfvGL0OACG2xQr9SvIQQ/h88Ajngpx6cTBVqXPhCicM9j5wzvZkHIwBfBMMwBI8ydrMP0O3XmpAQfxXiS+BqmHbaVB/xh1h/VI/Un69O7ewIe5zUwwAj8iBbgYVjnB16YmGCzZwEfpOvneH4kmeXpEqLyfXpz6cOavLap6X3yI7RYU3YYmgKEaKVyQQowEeD+4fdIuw5mNq1paNbBr5TD6UZY4uFHztj/H0S64KD548/lRNNxlVsPepn4+fLL58da6QtbOPgZ/ALegAYdrQHF8RWtH8xs1os3RDiYTcx46W+kodzf+w9fw6PbMZ9H5ZrjwaxPv9GqcI3KVZ9ZLyrLwksjE9WbVZ6U6/3m0Yt318DWDYeOwIxcdhhlg9l1ue7yhekxaGyhjvziYL/X+20pJsRbPwj+WESNnNQXACNb0EDAw2zz/JN6cpE8dv0Y0Jou5uwRlVs2vXx5uiekP1uRHtBw8cYopkHhX8TH8RWuAr/Ex1eYEmRIpBPLRpqzQGsfPIqJxRyv8fEQ1Yd4lKOrEb7FOIjjo8NRPW54SY/Kj7e3Uvk+vdH0itnkZUYWDVr7xAiaF0KNQ8J508NFKCqHGSkoL5afA5oZ78ZWNMhkA040fCZQEB8KY0acwMPyASCOnjloxAXwdrzsRjDrNfFAtsgF5WKgIJ7wjerXYR3v08cyfSDoxfYub4IIh3wTMkykyTE9wnh6CPgxxj8UjXHAQj7GX4CnP2t8hGFK4vIAxHDaxyQUKz/ML3BBNuQXZ+QX/g7HnFW+pKeObz8+ctG/HvSL2eRl5maGwQ8YwfCrTYdtG8yB7YdmeShabI2wzYOhmYkoXsLiAw7buQQ+QE4PggDPOH7CqZQYlIcYlM+LYbifw6gH8dGJWEDqfGZ9unykwel004/X79NBovFCH73fXL+xxtsNGsCJBit8oWPxZirwwj/YngsHm38R+ulyRPuXekbItKTXEFz8nSyfq9Y/zv6T9Kh8G38J2760z46XsE8HbZN0rZU+nZheeMKm33r5bMOknTVYWIWNEdu1IFTDV1wKQ2uBVoT97NjVgh0HC2knDfhM9sMze7VRPK32jzC2FANFhP4QDvHHAzm9gyaKR73YKaPt74q2v/0M73mXelkTQ3mUdz7VLfWiHOy84WKDsplu9Byrl/L5cERvkGqs0eM5bAUmHgJ/vof4Vdq3A3e9wFGjTX7UTIOdYz/hR/Az8km8DY/yMF7AcxgfyIdxgLMZoCfq2UUKCuKFf4XOnIfGFZtGCXYh5THLE/4WvLGhADvaoFxh/KEc/aN9sx3SToCwa4DckHZ5v7Zx1AlDHRgPDh2J33qEeR8uFQxGA4OKYwajAQM8oNXIghYGkuy2EVikoRyxqSMv7JISDvHXKoG2WRrtw64EDBxMMChLa1God06sXq4vwJHxg02ey2njMnlyQpgJVR96AYewPQEBfLh+/JmX3uCH5wlY+BNhOPAUnM2PCINfhJfBd8yv0SBL8i+Vg91b2Hwg9XDhxg/zPuo2+FvzIx3YCw7+8bZiekNGVSiPz6A4xhXb9rkcom8ML1Ro83eAhMAn0m14H45I2hz+1V+G0nVrDQQY1TnMA4LqgabAgtZRH0wqrEkQHPYjg6klXE/8+JU2wAdvDC78gH+j8OGB66APBmMj6OHrT44H9P/OTXStgbEbC/yAN0IXv0Bb5m3EpFnz9kfqT/A38pvnO1z9KfzI23gDPhBbfRo8ygU+9hoT4O3yYMqRcyqSjvyYjOQkujneYHJF+7NOeJvwnn+S/NNo+gRfhgq4R2r3PvWMMdt5enh6jCN+wN02fH4lhe8rpYdaYkp+n95Yedt2+O1jwUYqT/rGkt7T29PbqxJelWqAHDj81lG8+HtNbRxpar6/Pb/76WX8TC9ek49MZn6q81O9n+r9eBh7ciDS5Kl32aXNcD7d0wcU8PzhfhPy48OPj9YcHy2tyR/cdjQUKfu3HmUeOrD9mIym3P7AFdMzYecsnhHWAxE2Z1E8PJpe7vcTzUx8hW4gQDW0yyQcJWbRdizRNW1qa+V4c/wUwfNAMNak7+1+NPkrrdx+GkN54NLy+3i3KlEVXSJNvqrsxAfV5TtAwggO/oFtkeCWeE5skZ8BYljbDSxKnzhc8Hb+vGGbHiatUIadnrfcVoETWpn0RJwOt4aYWP/KeiLXiFq/AX593OljZxMFDx6Px50+di4BgwgbzgnUgpF903pTsZo0vSc1DQlZeZE+aXp62Ugvy92+9HYqKsmnt9/sjq9WXtaSryGavGgUr/54C9PW1hQqEXzXCZ2vEly16btO1rf8PHjVu415cKgHzPypV+Yqdv6UJNxHfvY+zrv0p5dUqUrUMjSU+upf/3f11b95LBf+HshTIA8Fbr/5DgbTk4NSD33m1xxTRG18m5hyIk2e6uZUQzOPnbbIl77+5RfVV//2q9yQC+eG1KtvvsLP/qdcCriEYrk1ZJdW9sSI9qSV+bPv/aT6nf/6X0rhT31MORgGGfz92d/8D2r9K+sUBiUG5PXX3KCOHT+qLuzvUG+v251NnCpSuzu15tnTqTXYcxcjrf38xbhGX0XxhbLYuCDz3tM71ISO7rCcro4Jamj4QhjO83Bh+HwIdsHKO2SkhUA1PPRPvKyG3MWzHjyzJ5bp4CDdjWW4iZO71ZTpk9S2fe+o3ik9auPm1zn1oU9/Tj306V/TkCXIXxd/l6bJr6MBAa0HA2PptTerKWq2Onn0tLp46aLRVPdjf5++kMmdGsV2GUyG2AnEaKYzmdCMz3q+bMqirOQw7fxQsYFmDtKwkDo9FBUCMojrgU5RXNJwwKCRgbLx8DoG+8s//it1GwndQETXzRcNHgPwgZ9/UB04uF/teHuveoeE+5E9J9JQ9vGeArkoMPOyqWrGvMnqn9Z8XW16e5Pa8PRr9X1TjTR5Q4MvOHxgs4Tmg0Fx3x0fVd/+sx+psgZ7Lqp5oDFNAQj8N4+8ovaRNvnKj1+lttZXzENZwd8rP35NbXj9ZfX2+t110d7HdKf5xlWkwIT5F9TXV31Nfe2P/oreGOtnwy/lFkoR8B+886Pqm3/y3YqN8wCeAkUogFfvq2bcoL6/5ZvqwV97UH39sa+T5lO/2y6xwAozzYFD+9WRfacSAv71Q/rNYvrEQTWtd1C9dVhr928dOZ6rWQumzma4c0NdqfCzU8wNrrfeakwT5psSkDhkmRvSEDt4Jm6GSIPLGy+0qATf0znkBDl3sUtN7rpCgS7V0EEKtc0tEl+LXwmfC7u0JeKrf/uY+totfxWoLuXzNd1CSUb+QDGqxl//smZ42JX+6JG/roUmPq+nQCoFpvROVyvm36ce3/iYgmnw9qV31MS3WXwPJC5cuKD2k5nmnRcj+zuE+6mh7WrniUNq2fwudctl9M0dcov6u1Vb92T1ITWZw/KzbPEUpUwz34UznDQypH2lzqu1u9zC6/jZyN796n6BV+ro+Y3q7JAWDuak0j9xnrp34Sek6lQfbRDz19I5Exmup2tI/dRVui2JjJ3davkCY6fLhMUJkKojuirvgFm79aQauQhbftw0q2DT5/jz6sXdrzBdthzvU1dOW5FL2EOobzm+mvsyD/7ob9uZk/QGo49suOtn3aFumK0XXM20qT3TVbi2VqMczuJn0uT1yy9PI4SBfOgob3j9hnVspnn6n1/wJhqzB/1zaRTAYICTnTrHSLtuu1kXX5Rf88DrkhVp8LvUkb1aS4dQgHD8/F296uEVMxmkffY1SpFwr8qdP8XZll+vfRWERwJf76+QktOE4UyeJDBRrFyzl0xaL6ulAytSx+HTO76toInrNkzkialtSrQeJnVjwmInvqDRBH/5dTkqJZoB9xc27lAPfOsJZQtVew3q/9v1DbXj+AGeqH/3gzQRk2vr0hPesoV6QhNa5Kg9AIn3kUzeum+0cnDXvJ8PiwNPQ3GBG6INKtgDAJeHPxm0AHxwnzxy0FQS7DaQe8vF9hmGnel6r/aZY28ykv7HU6BMCpiDAeVC8/n6E/9DfeBD91JI8202f+I+82L8jc0D1151XcxMs5E04KVz+kjA92jhCAFfiwsEaChQg7KAacwlhD+lGnHQMEXLXLlmjfrAkp+LZZfA1qObWMB/4/4pDA/hbgp4wNm4SN6W94mWwH35klPqG/crEvTr1P929SedaK/etYoFPOiwfAkd2MIk55jMwn4IaG0WlmcCWH69zgH/kQ8p9W//Ypd6bt931Xvm/ozCpCMCHlA4/8DfGHDK1+L8G/J7wPdJmzxVpIdEim+lA0kc0JkwSWs3CIsTDaw747XM3rUiu1L8wq1QcWz4tjaVp1VTSdPpDrYUmvCDx2l7ocWHYGzm27T4AumoC+YPRRYB07130SUOttUq4M1CKz2nTAbIJoJo5NBmmnwUafNn1dtHXlNTJ8xSfd2TVN+E6C0DWx7hMCG4BDwnjoEftO8zt85VEOYw79kO8XiTYTrk6UfXBOCIs+uxw7/18R71qT9dp4bmnFfzJ8dNXhfODvFpdD5pXwL/2vK7Zps8TlymbZM0Zyu70RK2B7F+eZJU7Z839wybNs44mJIJworOFZT9yXmAsyatSvnt9laC9+kpFKijDRM1HtlzUs3V66OMAMwcy+ZPSWi/Kdg1NBpCG4IewuvZLW+RyWaWGjx/OibkX9r3JAu2hiLW4MpsDRv7+GVyM1GRic6Mq/cz3hpuWzTgxIfrBj/joQ583UkTh3aBb9uEQnUhJR1a/PCwe/EoKLlmzxSM5rNdsGuCsGF8eGxQwOZb4dOi/Cv5xEf+LGebOLJgG5VmC7e0eu+8nF7cHWaaNPjRFD9ycm+I7uTu4+ocLW4fO3OE4/on6080hgD00Ix+7Bw5zQf+ZG3JxAfKMt8RRPzHLCh8aPnV8HdnZAtCy+kP327ECMJ3u2J+Ml2uKTCR9c+eAvWmAF5vI74VPqVaC/Kvi79xYruIY+FCdltb0LJ92zS1VPGKXwQPF6ypyb5zdA+/ibjgRnsc+sAU8tDUn90yHDbLpAMiZZE1BGjQw52E1/c3bqSTwvconP41zWlQlomTC8lfF/+65Hdkk6cBwmOEBLvbT6YDJ9y5wvZLBLzzFGgUBRJ8muTPOB/nS+eBk9IGp3BwCHhkZ6EvC6RWeeYEgKTYgmfBycAUcFq4RZVBkMBcYd6LZGuwMPPIwqONV1RSA5+shc7Y5GmlAatYel40J+idNDFwKbsg/WNlZATQT8vmXlLfe/1S+IYxdNFY9KlC/ubl78gmTwjqmYR85M4RrsfVtbpm/+spUJkCRfk1Lzxqdh06qoxRPghzAkAOxsuR1SX8wzgSRqaAd2RPRLkmKRMXwSOsI1FC9RFVCePqq1P7B3erpQXyMy1F0Af5EnSoZgIIypT2bz22T737cl0B7u+5dOmSam9v54i8/JlXPkt5kU1eCBIIeAmyWh8G6MFIL3qbpFmMf/YUqIUCIRuGD0FpNYZhobRdeBrSpQHawCWGRTBwkSIsKpTf0d6RCrHsamMlGVCWUJOMsXolchT78kZTtAkJOqTQq2i5JvxFWs+c0K4vfmPWs/mvhHA7bJuQ+DDBa1/Ctp9MN5H1z54CjaRAxLfCp0n+jPNz/vRGtqPsuoYvRbZo7LAZr66nyzCFjAIi4OM7cX4VvhY/P//a5bTDBonJAhoMTxpBWOLFd6UP0BeVvPMUaDQFJvTSEXOLT138afJzkfQi7Uloe0UyNwA26zrgVse9AeSJqqjGFBPlzvWENRPbDY/osxeIN/m1TP5mYxBLfqoEPpzLFxgznYH9j6dAkyhg8qmLP6tNR3Psa62b1MRSqpV7+m0bsx0upbIWKQTXFqS64A6h1PQmJEBhNvkVKJjhWvi7k2ePKhvlbfJVEs5nq5kCtfBtVuVZ5S67oi8rq09rUQrwLhbrfrNWQxWnXevlaJ88FW1ytuyPlxpT0it9W7SaY+xSpfc9BSpRQLQcVneq4N+wfIu/ef99mDg2HsKbDsdGc8ZUKzra2vl7tBE/0xNsi+Is/gzPLxVIbxdbJYrloilCntmnHzMstiKvxQuVvd9oCkzo4ctTNV+m8GfIs1Wk2+2RL1QlzBt12G1h110kLDcfmnlcx/rN9LH8vH9w16hpnvCryFcJVyufzfyd4QxikMMVZySHtiLE4YiufcmYCeufPQXqQYEsHs1KAy6V0gFjf1oScWPONWCxsRk0cy1wNgOPvHX2Te+N8WQl/iyaXrVNPu9BKPO0HRq99+w2bntnV3I/78WhaPvX8FC06mwTq9rXT9edEXbZrrDdBhtGFrYQ39GlDzbYMK72CozZbokTPyufwLh8s0yTlqBdtXRw1ZMWJzSrR12bdryu3zrTKq8hHhrQaHUnzk4araiPa7z5Pvk6UiCpyds2ebvyIL2SuWbDgdVqw2tr7Nyx8E0L5tMuhpT9rMaHakboVJi4EdoH/NbJ9XT/wwT1+t79Eh3675o9K3zGwxuHDsfCSJ/Wc6vzGlITEFeSHhzcqHDnR5q7dWFwuITkeltwai02JZsZU5ppgjifq80XFAY6mRLx8Y2rOAXXsOYR+BDWoIU5kTnxLCFSroYVP6vIVG0mJ/+mlX2UPkgCV81H4dPKbOV4mKDGy1ZKUTxarT/4PnlBqkb+TdjsqdykJm8a/aVi06+UTrDyiTFcfbr82rlq+U1XmSWU+Jzj4LKcFCT/K0/TtiryV65ZpWZPnKtm985jXKZNjN+FD6GGP7z2/df30/Wy0+ar5dcFZ5FLxL45Rb2Lq/3yt55lOnzy+s+lavaPv/4YC3fQYd6MPrXsmjlqGV2ZWi+39p0t6tGntqgps/t4Ej55aDC1qlSNuxJ/VkpPrZESRrl544XN+2ksRnfMZzV1LKQdOL1LzembT5eB1agplUgMfHjGdrhw79UfvaOW/vQSUshSOVtnqyI9qcnbGFQRls+kPfKhJU250jOGcjAwobH8+sf1vdv0mRP15KYfqPfNf4BBj9OVpKagh4APP5E2Rq9mfXjFRD2J/fBJNaP3swrbzPqIRrJQJ9o76NCofsSd26jr/kdXq2fJdHfz5PfGutIMpGryJlDZz1AYWljQp31ntB4ms7JJW+/ysg6F1btus/wN+wfVUut2CaTD/F0vnm4PV2GpIkwSsTDizD8jnaKdTr5kDyFi33jnzNCESOA2rcd95BvCDU7wb9U21EI2XMYEBw29s/0Mf2AC2s5g8NZjli10MOPq/fybH16gfvjak1wNBufgBW1CMeuN8SUlcNjgz2rTzToqPrewwHfi3oKHgJx4NiEysXOqwTjA/F1E/hbh73bMHuEfPYTPZrw8G+mVaNCqwtFlf0x7nWvVNlSifWY6CXIR8oBDf8tWMxcdmkEDaPQ3z52kNh18ma9lxR0stqB38qnBn9WmC+3kjUbCaX6zhUMaXogfFzuEsghQJI0m7Eb1pYw3G739JOidfEuAHF8lfydt8nbNVYSXznHc1wxEcXe17QxtKCSyEWeD1xI2hZtdjnxYAIsz0HCbIdxsnEoPk4C/ZPVBT2e6vRKCthkO/dTdeV7tPrlVzeydwyhA0JuLodBkvCtGgRd2nlPLby+WZ7RCs+072q/BzRCz1Qh9NapVnFwzDHxEOy8bt5hNHpVgxhBXKSxwad94lXT4GLguLdq87tSsW/JWEvxhOjJkTA5cf2CmkLIxo2JhBg6mCtMuLzDim/nNCSBWvwDX6DvphDId5pS0qlLLSMvgiIegdTnQAi7R9gz6u8pxxQmd8am6Z7e4IHQceKUSf1aTPn1ucmESd8tvjG/SChErg85hYU14GO34FyXZkhmXqbW7jqq77krmbAVamDKwGv515deavJRGRqE23sJDBOBRlBFO0ohjDp3Zo+bSx1YTAiAFvlJ0SPgUAWc2yi7LxCEsJwDC28b+k3aOKGzmjWL1kwg5hLLqt/O1Ytimg7zRCK4uOkj76932qb3xdRPcCy4OLMunA/PyayV+DtK3/CR9yyza3Tb7GkEhZvYKI1v0gc+WdCTXNloU3dLREvPb+Ys96rntHeoR9CVtqhAnPC3h5vj6toFQeykijzP4W9vkCQAw0R3dlcNZROjpqu+HvbPqNtMg2OXPjM/1bGulKZNMrrI8UOkUKMqveeFdiPZPvIyjv/Lc8VhyawiGGEpqYJJ+M43H6lBbp/44haS1Iv6CW60+drG4aIEzGK/sO63WvnUorAJ0aAQtHl2tzURiPQACnR3R9cO4OV7zaWX5m5efARffXUMR0JDy/FW8S94WklRuK7nj55pjb24lGgAXaMvYT9xqDusiWS4Pj1YDc2y/W9vl7xhfpDcJTPZQHqy1jSxcG5UGwWY6bIk13dqtJ8xgQwRbrMIGBeQOHxGmfd3RWIddHoL+U3+3X335iZe5Hxsh4NH0F3dfVEv7IzuRiRfScRNlNTxbKU8pNnkgKO7gmb1q0czsASqwo8rHgBmH2jzehFwmm2b3HTQUMDd8cWWEj+11C/nZpM2vXIO1iJd5e63U2Sq+CLY0fCDcVm/dor7yg3f4LEIrTlJpuBeN/4Nnh+PCdEJ8spMT1SufWaVWPqO3EmMNSBwUjEpKhsDm8dE3K9ecpbWAIcIrytFn4YWUsvkZ5ZVuk4+aYD21mIDcfPi4WkhrB3kdBJ3ZAXnztTocmNlc4Kz2e5iNbicEej1s8mY7cF32+YtnOeqG2XfQ4us6HqyIwPmBVnEwA0CIDNAmAtFesX1S7NDAE4INO8dwonjtGzv5sF+ZgqzZtIAAFWG6cNoAHXRcwSjZ2rLgece8e9SSaTcqXL9yjl7QVq6JrmABLU0ndDInAmjlLnduiK4RMZy8XaFv7lt8V9g/TrxKssGH2k9QntbkRXphEQsub1hDJ37vHCUfV1hAl3XZe8Oh8QyrnYk2jeWI4xe2UvP0oGjlDyyYWyiZRYvya174lM6+ftYd6vTFnSQQDoTC3nVM3fV9UVNApBSfK9q8hAwnXE0hsnTANAXEtVcU/skbPsdnD9bve1Y98K3IROdqQx5kpO48sI2AuWbWdNKUb1ZLBzQvo06Xtox4WcQXWPGR5trHDpOmqQztH9wNUBLa0XUnWAOYahkxHrwxvkaCydc8Wc6F0A9/GSovf+aVz0F5liZPtaEAee/N8gPsoB3M6DHeQYL40eCZAr6rMz4DJ/C37JuJ9HEUwW81DXgz23HioLoi5W1La/JE9Lz8mhcuox+hzXd3vlcdmbWf9/AzqLUXG3HQDG0HASGCwU6rFDYFiQ2L138IF9HgkQ4t0dTizTw4d/DBxfdzlAizatdkTNODWUfRZ9cCadEyzPZLXqe2HCSyMiOAlu8qy47LcWuWVao+nJa2TRsf8ibFu3x+Jr5nTb6NHngMFPATLTAjaLayHbYrtZIdcPPhY2SuifbJ2/iy/X0cCHZ5FZX2mxPf+Yvx3RgC06i+XDg1XXkoyq954aWNeKM7eGqfBGM+BKUc0oolVAhUIxgqFJlIhmBL015tYBFc4tvpozk8nS4dTJvoGtmuNM3diUMB+ZuXnwEXaPLYn8nZgn3ysj/e8K10J5IS6br1bbQLzAZorkK+Rvv80eP4WyVfQyzXEifwaVJfYtBO6KX3YTrfoDX5dP7U5z2KpyfaOkoi8gp3CB1zIh8lzcuNZl6hyiYTOnfh0uiL0Af1mQ4WATErFppkwNChTd7gW5hcEG/J3yL8HdjkIeDhAj+0DVlhO11n4tfQa2fewqEFU2erF3e4dygE4C3pScekIWcfpkqDG2vxa7cP0vW0jW8VFtHY/pxirmHOtPnU5s8q0qfPI1v2xuz2QqDimgVxYvaQcBG/Fi1azBHQ3GE2zaPBw1wg9wBBwBURaEXaVW/YNOGaV7ACjmHjMprRlksKpQ2gbR4HBQTXBouTXTx4K6zkbvqpJXxOieFsvpVwlfxdtU0eNiTXh0Mmd12hzl1IjpJG7UWtREykQ4DYzmaOVt06aONdrzAYE6ckf/f7p9STlpBvhb5shk0etMZujDlTLqmn3llbGumxGwS7MrBwagt9EWbmmtE7x76n9pzcHn4QR+4Y2nw0jhIO/VRyOOYPN7P3WnX5lEX0tzhclKyUd93eZ0KQvad20KGb9mitIkzRD1dOj06XWknOYBsbqHUSTqm6XCXhyad8KWMlOJQNQY4P44iAF5q+55qJ6jZKNw+SjeC8hFgr8Gw4c9fN4xsfC1OACxa+01zd+Jm0odJt8rjn4+kd69QLm3ZHH9ogU0crCAYhsAh5GVAykJCOzoCZwjzyjPhWwh/4lOWw/S7tgAYGB5j+yt94Sj38wSv1/uoGnA6UrXDmwp5ordJuaPLVrCVVynflLST0/kUP+u72+DZJ+RjOe6/sVVfP7tUX2fXNUir46Axuz0w48D5MfeITgPAfYPH84u6j7K/auou3OooGmCiLIr60+gtc708v6VRPPDgzBLEXw/XZBsKNTGv6OQSN3SGFk5+4sGvlmmfVP236UcX6UcprB/8xNsktW9Cj5k/X5V82zS2QlbJmoACdOxemwQcA7A2aAX5+ccc52gW3JxZ/YTi+hiTmRoxp0DRL2IPPJ3efqO47EuhbGhdw9hs/+lfzs55AXH07KfjGaz34GfyebpPnVwPDNmSFtVGU2xX7wRFwnA781J9vJMFwTj1y70BIgBhgkwKa4Gdjgs3UkgQtOTSCsHSgpI0FP2I+0CJqkfnKLwyJAYD91fjDQq1rO6C9gCth1JPl7HRoQojDxGNuazPxQnla0Uvnz4QN0+LftPQ0XA/SnUzYJ/+N+6do4Z73YzKGkGVtjQTC8u5IIJh0wv5s0FrobuMC4Qp44AAHRcRURrh8O5MjbAr95bdrDXv59Xv5oBS+mgahmCYQMcnAyUd12nGXT5PWaBxNS0S98M5R5lto1V9Y8aVEOiJEi3/7P2PSnKgKtwl9HNxp1Eb9CweZAYGP/pI+Bm3T+rZe/AzbfcwmD8aH5OfvBJKXGWZAACfd9bTV7OCOJ2KCIQnljnEJEDdksVh5jRKhYm7bMgUImBufxHvypR8R/k9xJbKP2HWFsn2Jlo2V1GvHNzIMmpp4wDSAPc4wE9y3+KOhicDWloEjmPJdM29TO+lVFlvtsD3wW6/uVgfoBk/T2QdIzLS8zzgwAmceGkHYhRfMlJn8SfmqSXfdQgkcthxfHQ5YW7giPbdLEQjL5mvhAP6E0JlD2yJtEyJMRGkCPnf9KYAQ/HLA66XdW5xCHhMQnAh4nmBaWMADV7xd4Q9vo2kTKOJFEBcW8KjEdAE9IPRlUofAf5i27mOMvH3kNf7sqLlXvqu3U3+atYj8pTrz8ndkk2dERTOiAIQ4VnX1aOJUFCvhOYtnqFd/7F6QgDb/q7f8n+p10nxwhe/2o5FQkIEcFKjsgyNPbpIUpXjXRxSMPdnlxBIzAgP0iUXT9ukSIBD0M3r71ZYpm/5/9t4EWI/jOBOsd+F6xH09AAQhAqBIigd4gQBpnRZNaWzLI9kz0ljUyqbtdYh2iFzvenctz+zORDjGdsxoZkxyLTo8Y8uH5F1x7LEkWyGJokyJlAgCoEQCIsULAHEQJ0Hcx8P5Nr+szu7s+qvPv/v///fQ9eL91VWVVZWVlZWVnVVdZc91ob3Q2OPsP9Ykz+tmCkIFktL2S7vF6D3Z2503ZZRz9/LWvdV6stPlYXEOpi0xb3ViK6DUn7QVztowI3608Cqcwb+J/C0Vkz9lcEr4xeuUwXMs3CAMtfaswIs/KoFgSBCsWbrH/NLNC83eo28ZmIrAm9InEPywE0MYVYpDgLWYGSDo/9nnsaZ2d0t7gAMcYNoWhi2l1xvx6fcuoCMM/Jr05MHRsG8rfytBH+Of5CAmxye3vmpmTiIzGoVlz/y50+edN1OiRVn+FXmt8sdt8sFMEtmGrGYfhp30rG6BMMUuhNJCwSp2WdWUTteDyFdItwSbD5eicUVonkaHbt2NiXUSGQS+tjMPE0NbPxgTDn9CISmTjvqwy+biwajmV9/CCZR0qbs6njZKre5pxpRjJORteRg7IuQR8663XbAJweRgA9X8apPklkO7DfodX4Xq+lETJprxoMG7VLn/1gt8Tg0mKtcUhfbW2beYlMGH2rm7mqxsdvi1JP+G8jrIH2ry1p4XaUIA1Jp8S7rCeGwsYD4V18uPECD6dcmHK7ZUnjQnfEkTJi4PHWAyAJzLlD4iTBmOL3wBZs+xHebsaLJdHhMpyodDn8C5ZgqOdH5cTb6FP7P4Nyk9qGf2yHTz1sFRp1YK+gQsaWUx54OJAXgCqgyYxeStSSB/sPer5t9dZ7+Zr3qi0QJe6jtMl9uL04IeF8lUXb/UU5cvH2HiLQg7aFwhH9br9hv1iUubsO0ubFhI64NbhkBoBSpukyfRm8SfdjYolF6rJr9p/zo218B00D/QZ4Ym2ZPe9JVX0uCLFy+anQdxhkrkYDN23dVz3sNR7iBw4RDGdjc4LJrB7T1hz6RZNnslCZYzZozq7Ovv5zT89A1EzwiPjV3kvavAbdlsew3d0MWVSGoZhByZ8KP3Ub91Nv4VJYTg4hnLEnJWGz3QN8AFYqF55+Gt5m1zropVsIzCI5NacdF7q5FBts4dOv2q2XY43p5YgQUC75g/jyaSyWbB8HWpC39SJI+BijSdUPMJ3gRQx7Yf7qHX6vhumb6h+G4bwGEA+wYxtDdMCOIDNs2JucSFabnExX2TkMmhgNDhr7mDihh/KcOtnMJFzjLy0cFTJEcxXZISK4zX7cPa1Pdfp4vr6WJ4PXGhOm/fQsg7tJEJg/Ogf6U/kuivysAko8+/kfNzUJaV3XVp8lYlYiM+NTW3D5t8kpOtZki/eclM87O30i6AwSEWmMOTTlEshqjrgMgKs8bdhhZoFFgl30Af5jy27VHOuOiyK8zPrLyHXysRAe1PdslAC3/mjW+bTQfWsQ3zX1w9bAfbgHyUgPqt9siF5fqx79Drtz5u1hMu2Pd708hP875iya47DXEQhs/u+a4kJ/p7j3XnQLRdR6yNVRB7ats3+BELz662I4MCi1RoExj2Z64fpg+lVkv2Ft+7pdCFCgYBPrp66PFdtC3uAG9hxYIvzH3oS59mH2o+1iCTm2+xWJXK5/aVwMWycJiFA9oW5IRQSxIIWnC4FYGn0H6YFNYsndu6HTLYxSH5wknFFU5OWOCr8lmYEi55ndAlL3xVcLtpPz/MYJi80syBeepDH+u+c/u4CE1q42fiwMHYDEIRdgjk832EkK1msgLff/ltPrACcXYyka8uQbhnXtxBp+jtZCEq2+y0+QV2t/W7v80LHdjCKdubClSaCoqOffAJnET432LbsrQw0sLw/ruWkjCMa82pFXQpEdtGsU0S2818gh50lZ0IX/yfllRDVwg/+kf/gkZC20c3v8RHwcJk5lszaIdvZVeCz9/yA/vWV3UX+AQCNH3wcyFHebRr0TQhzOsU6MHboMZhvDxDMXl0s8U2j/mxaLvcPvblH+i3b9M6bZKzu8bHl0Xkspu/n2cQ+inla0ydZ6zAh5qLk9ZOEGVCQ8QkMnrx5bAorUXDfokOrQsHVIqyf/mWReaftn2ZD7I6omyYSIcwhPvir10zLgQ8cH3ggyvNF3/TauaCP+JdB9rX0bdSD2irt2j6zhcpxa85+JxeCYq5kgKVBUKCgPcJAiDFWnox7BpohwIxvpKvVh2YMFiyb8P8nge8SYiLjsYoKX9z8DPGST80IjYI8fsTafBBmH1o9qnpgm7kHziJrWD1bPOSWjBAIAhwkqQ4IRi0TbzasiCC1uNoPgJf2qe6RXu6a+VJc+GiXXSGZqAXUlB+3cKwdBtSMq5ZYLeTYYEKE5ecc4IsiINjM0zVdOWSiRWDgYWzwcX5tK58/JnFv63p237QqlnLmo7gU7cvPIV6hK+5TpfmNQgh1KNpz/VO4B/Ii246rPex+bqU/G3lX5HXenyEmrzVYJwZhSJFY/Klp97z6jKkpiSYsySD5n295YlGFkV03e08E84Xi9zt6Vyc3E7VHclL7QN9MYHC4QMotl+6Go+vb6VPgzK4nxBXwOm+nTJ4NpbTnUCZLzP4k23v0MwBDF/B+/Jv+nZ8wE8emhrDYc3b58fCnQq4be9EvbJZoGWC9ZgbGJ+Cfd2JNhSqY1Lronqh/CWBL9LOxKEpQ7n4M4t/k9Irt8kntpWYIElAhotFlFk/e8tSzCRfogqcaJ28lxeCSAsjygctMbN8KUzVgyjk1UJIwLQvi2QSl7jw6JQt8N303fZp2uKDttRFKkr39S0rJ0GjhO7i+9rq0heCRnZRubSFpuLaHtsN29dWH2adi8PJm9iNVuQ7h6qxcyfYqstvymulQB38LONhMNRogiVXJPCMkMtvRVZieDBLgHx5DVdR4SOnBYJPBIMWBmz/pXQIgbRyUKCYFGICPqiJ84e12gfUk1WmkyUWLDMgfQIxVmiPBHz7tcMJtCCO0sfSv8iu7fqugHeLd7fytce39Ibq4e/92yPzn1t/Urgd3kkqMym+W8c+J+Ez0eOr7ls5UkXTrT9YyK6Dn0WOh5o8V0wbhmVGyRXW2Fb8LEIBxWYJAF/VeSeZdjvSPZZB47JmnNx1q3GWZ7RLrrFreWUXoMAvS8My/Rqe1826SEF+zeBv9+jsM+fiFzq7POWQofNB/aba+donVI3dGqvYWcOuBn7GF1OQ54k2edeG6Q+n9HMXGBDaHk7Q65Zzd4H0nFAoQBh9UJx8kYrs+OLR95ZUoOhqQB0bu58/k9eUfPCpa0zVYF26FDn3vXQBBTOWvfe1YDU9A971sVoDP7MmT+WGu2sg8bHKyz79eH0nHReHuO7N4OtSN76TYb4soUOTzES2X2adsFlnn+KUTJ+Tj7Ty8CeYOAbn8G9ruq/GlLjAxJgCUThp0z58LOh3z7zeesxGJ4STLPyGplA/ehMrtoa+9RFoaIrV5JlPM/nT4eec/B1q8qFNCDMKBTjs+qT+uPE+xHsxro7BgB08ehtnS7s7NNG01FtTRLe3m+lmuXzIOppLfgAAQABJREFUYQ9/xuAy0hdemfwVt66708/6I7tO1J1mguxE/XXW0WvbQ+WbiCr4VzR3V3730+RBjn5K+CNXtmryiR1Uw8w4ej5+NIEca8A4uPV1Q+C6OCQSp/cSMIF128nOGi8eJfg1i88L8bMXqWoifUdKJ12BV02NBUoJvgspkKMBDSig73RoIUoN/Cz83i+2yUBFx2RAjn6sCpQddrCdMnTO3N6hBcdULdrBqxPBrAXKTuBQex0d/Kxd9mqjTbEJHBF5+bMAPy9cPhcltzh84NcTzv1eAUh1QHnRX5P3BB0mIhI18LOV4zGbPKYSbfPJF+4leuMwK7HZdgovvP5pYST2y07VX1c9vu1eqCvfnZx1YRWVO2aN7crmno9fIxu9Hx7nyPeS04vencILi+760hm9oaBX+r8sLdy3/8R1hpomT/2Whr7FrVBwdfEz+D3dJu/aMD3hvMTWe6Lz5skDpwWshi+7rU+Xkec5beG1UzjkwbMKGNyg43N19K3+GAt1YgLXzmvD9PCnVZCCtaQc6XyRt64oePZd/dgJLVqjgsurGzexKMAvmtSkuvgZ5bZlk2ebT16aVzwzJmmagg4+HOm28+FQZm94t9oxZeDablXNd9CmVg5FvORaUmq+1EpbE+tY0G+tpTdiurk9uRsU6Gjf1sXP0ORJuSFHP1bl4ce8YdgwL9LFGtqNnhsyXo2j24uQHa6f9zWfTd4Op2nWi89Pvt4fHikQs4efp33yjuvKxFWCXy1fA/lkfp+jzDWj5yPNGVsbO/Fmlrp1tIM3sOnTGnV3Hz8ZP89H0jpBG6mrrO8qhnrXUrfwv/Hqm2xzauJnsLrdJ88aEaaSwCZfIOwSfD5d4r1+ZzQ4JL0uIuodGLrTyNglVbNflyByB6XggBuOPvud+BeTOJStLjxija0g4LYLRdq7MOmh5gnTHYyoW+iKZ3baJl+AXzlbCnzR8+Tr4mtpZqZfc1+gfpnksd61Yde5Fh4eLzyNtsyatBxezOFWshaHsdoB2rICj8pr4ufIJs+aDWqKbJeIyhMGlM89+LUfh9FggqoZ4eF1p42+HtBdoFrv2C/r6LCHnraaukw0uNxCHG42em73UfNH/2O9eWbza3wZxng5s+Z/+9oMs2rBHdKU0B4ur+u6L+voWxHyQle3bxmxnPzJClIB/rZ8HzadHxYML2bfNb9pOsRz1BQK7sLVpdfB19jqp8eW1If+//GbdLu5En519L/UV7WPdi28bKm/WNUmANTRt8LXggAmT2ZjRNTEz+B/dXACaqJ5BVMLLr1k5/Gd9En0xda5k9Er/PXzVxt89Yqr3HBN3v0/QQeAnYvMFu3uvwah5H/VgmhWlkugA8TZw5WB7Ohc9LGT9jJpXb9LdJ1XP7t5JB8mGp8wlLy4XenVvT80Dz+1XqJafHeBUQDcD1L0MQMC044Phh89F//OAOVBg1+14O109d6dXDwmLtGiock9vG4r/W83a972pjG0Z/r2JSGbMnzRH6GtpinK0HT19a2tJ5s/W+Ac/nXTfefJL6C3Uzjwk76hrA5BgHq0IBItGh+izZsZX3yuq37goHlDFr1l5xpuRbv/Tnuiax2TDOqvw4HHPnmDX8ijHcLJuJ2sO+0i5szgzzLpJOSlaQFZnWALsbPSKcP7ln3YfO+Nr5v121839+RcAPUJO2x3StoLDyEggoi3IiktB1r0Q9+km5noKru6HNe/gISRRxhKnRgUc84uIMZ6J2+z9J4HEl/SkKzh4WCIwHa27cF8FQI4D0k2VIAtHPYztmznEqECzXmVOjIddJW7XVEO6AptDrdGvXVs1Jy7eN589RhSyruvvhQXKKsWXM6FCV3dvo1qSmDEhOgwX1Z6COh5oPUIvtOTNhHUIWBlotM1i4BFHC6fDx0JpbpwAB53L4/e5GSSR93ggYfXPcYXA61ZWuy+gBD3LjzgrVu/nei3bn47MbS++MaztWEmfStjDRWhb08cFtN2wJhZ/FkinU6hHLNrrjyD0ERCPr/i5gwnUeXnr/1V2p/Zbw6TFp20zVHysvDzCLsp/dDoBCrScOQ1XlJcTQ+MuHrxe81Lbz4vIJX6rfVfFhOGvsqQx83ng/PFdeNscQhX3xnymLg+NvM+vgULfVu3c/tW6tu/7S2DA8WK8msWvJTv+tfNW03CbSNFWy3WTa8ijDdDOM0nWsDCXATBjl0fdZn+xAwqOGhhCNxkov/Eo48gaKCcuW+dnEA/vrdPeXMTGPGT4iW9iA+BKkIV+R57bYo5cnqe+cDyj4bFaOUFkZ949Bjf5IbndnHRdaM8hEFXKFtC10h5gaAlx4xZXP5m8TPSw/PkrYkGNvlAugd+Vthi6P+VL+WkYX6oOFMnwSTFa3OCC5NVrwtfJuxqu24Z+kMSN60Xw9weEiJauHQDT/SrOxBb8SjOr0X4+cz5aOFczJAPr9tjnto+wKdxukLMFQ5u2MVfhIH242aqaI0Hkys+3Lnnv73sFZ5u2WlhXEziOuwesqa6O8x7llpTHWB8fQBc7g4EJhS07YfeiBUnQh9vaa5DHL4tSXpDd+GLhq22PmiWzVxmpJ3LZiw1axZFb7Ozp0VfNsukhXuhP/FoPZe4ow3a8oBwi/LCGnr1/Ax+b7XJAwM2/OTz+RS1LmxJzxICEFIQWHUdNZBXGHJn0qt1XXhwdxX4Ad7aweYrJoEigr0IrK4v61k0R59w0Xn3vX6INXkbF2hDBfjWlw9vB2kOZkjaj2ae3PE12jo8Rhrarhi4aOKxyAIBLQiYvyZFX9+KMELd+45bs82OI/tzly4mO2vWiyYvFGA1zJX81ixmMsRLX+BZO3zVLQoU/DJvmmsW6RKTn9OsAIJDYu4Z8ZSkMYtJa+nM32Lglw48R2ZIu34Xz21DXpOrA6hNMj4cQVf/+KmGj1353WqTdxDODvqNRLuPvc4N2Xrox+Y82W4vXDgfK2ovaQBF3ACZfvr76Z/OToGPjtFuYKjfLJtzlRmZtCyMhrlBrgREpGjVO49sMT/c9/0Qbt+Jnfy8bPaIGbsohDbmipkjHD84MBDCDtIdlwMUhm9aT35luONnZobwvgfZpeKmjSSt/LuATtjPMA5QDUFoRHhbE7qiiiKTGQadLCwib5ZgB0zkwHd+3otgij5llwe++5mV93jb6RNIWUIBAsEVBKBLkqnsp678l1GjIuU0iqvoKUuJqqiazGJc2mRm8AAkCXcPqJk71Y55Xxri2sWnla7Cc+In1Vw+flBsQWERkHG6vqxwqD2FJZgX3txoXjwI+6UxfF3c4IC5bVkk+M73DZqbzBROH6OLPuA27zlKWpIVppOGoglhgDRN7c5fsKcjnjGbdDRPXl949hscB60H/3AxwUFFYdEQ/8Dr3lsWmXkLLtBGYNJFhqbxbiDOFP6M8tP612gnSeDCOd6zhiAwJuMAx9dOPGduXhbtzX1ux0Hzwx22Do17WF6PPmBy4Qkm3kUdwXY/afLc6Vn8WSgdwNkuaSLzCQBfXFoNrUIgDg2BlVR/HLJ8KAuHbikVeVsEGsGJSaQX8E2mqfBc4BfiV2pkDvhBK9CVVBebPJOJfrLCAqd8CHjYI+9/91yz9gba5ljxkQaqqpbHB7+xhXfWjNK2zevnr+H0BdOjd0MI+E/fMZW2gE2mO0anxO4ZTbx4+4MrW+qpNuIKLk5wh6bvvqlUW99EKY34Nos/C6VH4wAmiaG++JZFoRoG7MkzCa9xAlTQTxYC8YIguM7WtOCd9AYRx8CGMKZAI1l388HoNzxfepk4efMTE6OUUZUgr7pv8/ZrqFkX4ldqfQ54xyYvJJPZJTs8aUpcbT0Q3Az1hY/OMP2Xl7HWSZ3l/AdIIK//8U6yl34vFPIw2UCjl0sv7r9zGgv3Og7WKoe1zQXcb5/5pnn4+6+a6UOz2JQRexNpp/AJltfexyp8Kr40smzYzSflxX0ImHMD9g20Ha0aAgCuSB9DmInSooVsWYEqazJlhCTypObrwhtevKeKh9AXMoEUNUVikpRJqEifWiw17+lnpLYXjtnkoce4xVkE7G9WOqDk7O1uCVBsMYOmjh0LsJHidZkHADGcPla0W/hperrPsu95+5FXzdVzbuLXcjBc6kByC7mkwpHmjWZn8WdWeqhNJdBw8qA9KmPjnu+EEKI4XLxo7XcX1fkyu49vD+HkAWcaYU1JuxVz7LcBvrUcWb/xvdnFhCzxN95SgY/mc11P0j2xeS4k8dWvy3af0/B2YXstLOON/ZSJit/2AtNQ+TYID9POGiqkHfmblJ+EfFRs9ORHOStdcr197izeyyvhTvkQkvh3t65pbYvXCGYs7hRKxeqhXTiugzYhTOemNeE4R8ZDrdTJStdjgek+GDfXbNr/tNn0o3VcsPDYh68LXoZbq6OYYU/sEY7TtwQdOXPAA2f3V0tC2loNBDu2AOJsISg4a5babSWCI8qw2zTj/CVbN6WOdH+PNxnbSX3ulUNPc/SXXjxhPrByjblhgVow9mUYh3FVjMsTR2inE8/5dG5YBg3KpgccKrMJakFRRcIZmFWR7BF+brH4DFk0YaThIw3sbJCFL8y6aU7yhseLdnAdAXh171PqNKr0dtr+bYdpGyWuoCzCr2n8rcuJtx1myE0H1gXrOdPiiRkhl6fCsM6XwG84SuEh+nL76S2PMbRsKNBZ8QwBDxOpCHaug8qUuu4IvmTWn+uvvc4thcI5xprO9YAOeJ/nmQef2ExvGTPDzRBesEs+UngvjT9BpOLpgZBHRu3yh+W2cZ0713PATMx0irE0E+YqJyeQLBBNHjwTMn4sKyYJ/Mci/QEZOP7U/LF52iqmpvylXkqQ0lviS9vLht18Up41Q95EisP9d9JiPYSnfht0BDQUhpBHnLSoxHxP2AyA/48/+D3z9PbHvIISZhoId/yHuCXUG+KVr/pKoNbeMGy+/sqLVNbdlZQ3MQvRvKef0dr2wiTkZQahJ3rEZ7ChQ5IKe9NDYPuAE/sOnUGHtjrWlgNh2pramZhir6h+nPIIZ3/OJrZSCvD5G23yr+Jve56HH0Mcunfl3LMkROebvvlX+4GC2NgEkAqZPxH3JuNYg+9s/wfzjrm3GXyjoM0F8vVtFm75a6wOcu3ymfSm4ZcJ1dUyPks6eZjMNfwBLr52LSF/Ff8m5SdrEKDsv9wzKGEr8bPSCxC3gwLedx66YNoIaaHE+Pb38ReqWfyZP11rOHodR6jEgjRBQxaYuvz7b6XvOcjJLhp5M5X6WIvXbxeS0AM+xpss+maZTXsA3S6hgLs8Il5lGeyEy6aTkIcmVP7/Ah0363NeQdqlAQL8MDhkxd+Hbyf38nvrV5Fy9geifMJGgV7ij+X5Npnn/SSdMnTOQCOtQ0v31xjFynoRFlXlgm29T19203QDtwjL5CfgPzRw2hw4vpcPLNRfoSfnutRS6uBlWyaZazB7tOcGJwem/YxiYA9sv7aMSlSyPkOC96/K56qkWTRuIlBANJ+q2pLMnTuP4ovk9E/eq8IiLAdvviQgtcKkFYAQjh766IvtXnR8NDMhhrN+xDXrTEIJ658bhWCK6BNPbT/ENnmx5ZTxXRSwT/6Wy3uT4Vxcm/D4psCB1w9TAyJbZhn+heyRfNomf462rrblAkUiFNBKsQjjSlTAh5IFZ9bE9mlPah1zsgbWlbdUTFCqzSWaegllsRq38GHVPmvyMsmW9XP3RhfNNblxbADHDQWs7iP3EpMuFChDZf2wgDIUEKHuaN5lisqbJ+sbCrw5XyR8im6LzFt/ETgcLSwnTzYmSJdyYNzq+Njlf9bkwyoxoQQDhePyhMPM8YdubNWKY1AsxPbMRvsoRrSegAaTBi4Pv6bytypLyszh13mjUI7qG5BxToGzp3EgI/Fe2/xLxXj4O7a7xmoydlZhaJ4SssJxCsulx/HYKNQJ4e/bJinnUUSYNE8TgwJZ/Fk0vbepoq+w04uvvY11g102BYhPc8nbovw8hg9qYdPEFFLWz0a/1yDGk61Qjk3tNRr2Aj5W7y7Lt635tE0+d/s6bHfWF2zHcDx7KhZsAuOHAmdHrSbfnhxu5WcpjzV52X9Zzi9GzG4JWHw4IlvNWNP3DM5u4VaMgg20UAA6Dd44y/Fta74yNvmGZ6Q3Gr89CrTyY1V8bffJO5q81WiimSE9TPdtTIpvodxM90XK3l7dcF+cTq/qWcw1cm6NlKv3ybuDs1O4CS55fTm6NC/8pQQnmnw6fxJUTv62cK0UlOOz1yyzF91oiE6YH3V9zfNEpUBeeZufn2OavDXWy+puZBuyq7QIg7BJ6XGiL5i2hC4E9rw6YlETK/1dcD6TB3BhfIDXm690DTeXHJig9Ct58XOp3RInbnjBlXOocVn8mT/d8nkyvVzFIBmy8yljdElOrzvf9Yi9jnPn8EuSr/n5N5LXENhRedE+edjkkTSGGYWHjhP2p/uIsGDaYvNz//WEef91z5kH3reQt3B1YoBAQOIfFyrrW+9FG8aZ2NDmP/Ho1uBI1h3hqX2+dnQ6LsLdni8ul0p0Go/xUh/41a4lgV/9/Bnxc3Y6M/x4aXwePHt4y3Jsj3+etkx0GBK6ZeRvHv6O75MPCGlnBCvoEZUV3rF/m1kLpSpwuNV+14kt5uHvPEb/B8zV83AcrN9NGbRHAK8aaf2YQ+fwvh0oAH1WDW6fj906r269/9j19/HlCg+vI9xoMnCdD1fBUcPq+nR8u8+YnAT3RotPpybpKgQgGkt+fk3i55DR06uNp/aSIMU6Uy/hE6dUE0qjADEluBkuiT/Lptt98jyFWNMlV1AgPBBcvm3Ri35x7vXqxe81L735fBQZPMVusA8uxN4UWHLkbI6WTHTx98iw1XBb0+gQ0+X2M0DXDu/ThoHXylk3cDH6FTKGV1AJ8PHVu2qBD4v0OH3Mgg9S4+7D25fnUo4bWY7j+4hZC/BrGn8n2eSFxkn2d8R34k1V8BDfZ4aUtMYfPxQ4exrHGpAmT3ycxp9l01mTN2SisRpRMFqCKQOvAqwfpab7iXnm/Kg5f/FceGmHhtLCTMfjucpbYSEos7RhjYt+FryqxEfKzPLdY2Sz4Mdr+sLlc8zCK2ebzd/eWq4JzKf0k8qf+dNDVaocNrXnevJ12ieR4GDqu+OWhMQmehxQAG+kIm8tulG4HfmMffKwBaGMmE8RsXBaejL9uvUBEjQcCMosAZ+MeedTgDMmJVzSrM8J7zwmnakRAv4D//PtVBmYr6Rr4Vsqh/m2CP9G/J+ECjYTNK6hQJ0U2ESKTiSHy/FvUv5BvB8Eins5XzI7FDhz7rSZMXU2C65OfJlnheR0xiJLSCIdwhRHnkbnc6dfD+g0LzOY51UaC8IyEWbhnFnhOAT4q898oy2s8RbQNv8SBiEL87tyCZRgB/d8d1GipMwsPtNhWqZumZLScGrSWimw+dtbzKr3r+AE4ceqfLW7xupU4HPMCKgAilJWuBVdGzNK5hpcJwxtWjRqfWGAe+lBUjm+eBGMSGtHODJek1pr0Hi2psZj2qk/XtKlFdq/7VBbDcabAPYBZ/FnkXSrSrWFVs9lxplMctxvzyHXIBSjwH46VXUhbQsuIn/z8Hewu4bFOQn2wBcbZ47wwID/tvYY9kFAC0T97IPtZlwv49ZNuvRS3dDiweBQR8R2WYZ/df5Ipe+llraHSzcWhNvD+NLNvYm0+bt/bXVl/CzjYRDThhXt5fxLt0ualneXAtaWHu6PJy5uh495QKCAFAeBmQGSkrtJaiiQTgF+u21THvvGQz/UIT4joayfgPeZ86cNdtg0rqFAHRQYYU2eVPmyfOvJh7JKuQ7Z40fPx22L8pGf4Oz7otwXJ/CN33sU2L/1rfbksYevg901pJ9gBoExqKifQqejp3FzT+MaClRPgYUr5pbj1xT+Bu8nubfPnWWTXIFO4V4xibh49LKAb0yiCZyWwp+l5DOVF2jyVCHPACX8BFyb6IYCdVBg19FgT31Zfk3JB5u8nFSahLsrOC/SuUedcrhdSX9QpzcgHD9jJyE5h0n8TuFWpJ48O8+KlDeRYMO1phQ+paRC8jphnzwVwjNKDj+Fwo3JJoU4TVJ7FMjLnwXgtMHd3Rs/1HeVeehpOl0VmjsOtyPh3skbofCxU5o7cQZ72WjsC37uG0da5prTBHf52NA1M9Vc/bgpfoR2jOWWuwX42rHJEz14BhFbZ45wBgkbk00GgZrkchSIaToF+DWFv7N218hZRyzkOyxEXUEJoonJA0eI/O2Lr/DhfOWIWW8u4K5vtJIt1fXWOv5K51NVU/iTkorLZ8rk2OSpEJ4hxDafIxzQcvLg1OCp8RoK1EeBy2YHfBbTZArwawp/a03ebcH181ezoLrqP73FwlSErgtXRxhvEO7JqvpsIwh5e7rqMTph9VjH8UtqM2gkuF895z0MpvFOynepxt9018ri8jeFnymJy7NfvCKEGaSEf9tNt5lnn99oZtLXrQeOt57qeKl2WNPueijw0o4XbMEl+TWNz1GwvljGbQEE1ZLpR8z//a0fmW2H94bJcnKpe1qpPll15tQTIXzWw4Y3zvOdAthNAzs8nD6dFGFXG8bpqi8deM48u/dJEvS7ABJzgmMs0hOQ+jxJ3ihfuW4ZwB2mGv4qXZ0I6y3wEo28kb52haKexp9l5DPKG7S3h1DhLPapDvIxAUjY9d10hiXw8zOPGUMnnbpuymDrbTouTBNuKJCHAqveT5rO08asvmk1sWXAeY7v8mcW/+p0tokGiOA2KNcuP3vyPHPjyO3myKlbzTsvP2v0CaaCvz7JFCerRqeq5hsH+tiCKXQeGU5XFVu21IFzmXxu7tQR84HlH+UkjRtwivBozanrTDtdVS/6tpYSxSyzywMcIbhDwM9KwDvKeWk+4Z6Lm+66ihvfDv+iAF/+QXuPoBAXAyc6y4YkPYclVcI843Bkn7mNBpwxj5hZi6abk/su0N74uDaP82sa11CgCgrcCCH/e8bcSm+Plm+z+RP8HLls/p69mM6heRH27slRtuBp5hTLy2cv2HOORIBpQDeu6lNM855QqvHAc9V46DZnPec5DTarjImcbnfUgE+z+bOofAa8+uJVqpAvB/OFb7sZJwkac7h/D5lslsRMNjIoGKD5aSjQBgUg4EOlHeUEb5zRF375+DULfsXCaxjLTfvXmfde8aE2MK42ax5BCZhOHAaYt2Vif3dNS3nzXwpwT+96zGz+wgusilgRX0z+ZvEz0tu2ycPmA23+2eefNb//wC+aL/znr7A2DwHfaPGXApvW30YIeJzQ97nP/zFXVpftEq+6q36Sroj86greL69NNpqfOyVMUc/8ZbPN9KnW/oHDq6CZ4SArcfqgNwhT7J3H4X+dOF3VtxVS9u7Lzh/Bs/HjFMD3Hs8efMJ86pfvs++aNawxgZ8hn/sObT2i32fDGSWOUhSSl4ooxpiNtPD6qw/ca+4jhD/ynl80r//4DfPa98kg2biGAm1SAHb4s/MOmz/5/OeYz1Dc5u8Gi6+esn38qcHypH/pz75sfv+v/g1nw33FWIydPBTfPXbh4vmw2AsXL/DzeR13waYvuuyKEE4eZi4Y5kcIyZkLLuPn+ZdDgFs3csU8M3lyq7lI0tP8Q3tobUy5w3uPm7PnrHkJgh/tP7rfs3gW5EG6/lhpaHCIU2YvshPNe9/37gDSGL2GsY9OFcWEI/Td//ohhkN84ywF5EM+aO/46A7y8r57fzNGHqFfLFIFyqT3vbXlMIl6K/Hb8SHkscsGDrPTycOnzYnDOLtmzJw4MmpWLLzaHN5jmQsLDb3ghOi9gMt4xyHrS9Gi7RumrZIHzu40m15+LsyKN0YMDDYRkobSDr9Cw0nL/+/+r99jjRkDsnENBaqkAEyCv/uZ/6MjfMya/FukycMWJE5mCtfPk/4IvU5vJLONCHvJU8S/dtn1MfCzo5HGJAn2TkQbqlq4SB2N3xsUgGAHf37q3t/gXTUuX0pYsJWw65dJh2YKTRQXOriOz7OnSHzAIhotfLdevOVeau7Z5za00EFo4NJHwjr9JCuHEpPtXzY72rkk5Ykva4bZpZSDkDcnvDHBob/BrydIydUOb4NzaFH/Ix//WeYXwU98gZWw67eVHmnyVAywCzWc6sLPbnoWCn2s/I3ECHU7yyxSsdQWhW1HRGEL0RrGm0gZh7eZKl3aHu4q6+lUWdjJMpt2Zc1ZRKYAIvvdP/P+WvjPauzUqpr4uymfCCvDpgb5MZ7pi1MlgT+vp3SJ/1ps8p0a4E096RTIsmXqBTddkthCdVxWWRq2ymfRcFEmmBzarzidJnGN31CgoUD1FKjMJh+9AdCUXoGNvymvXjqKhuHSed820jysypvLx7nubn/jGGC33CZcb3829G3o645DCfdVaZPHHESk9ooIpME16Q19+K2VeEH7zBwNfzTjw+ELkRcNf1gKCD1cP40+9hRKgkAm/EMjYN8JN+kNfRr+aMZHIx/Gn3xsbPKY2BrXUKChQEOBCUqBfpwBwlp64zd0ICZv+KEZD408mFjjoNHkJ+js3TSroUBDgYYCoMAg21kbWjQUaCjQUKChwISkwCB2ODSuoUBDgYYCDQUmJgXsefLY184WafLli7UmTDRp6NHwA73rNuOjkQ/jWB42NvmJOXk3rWoo0FCgoQBToLHJN4zQUKChQEOBCUyBxiY/gTu3aVpDgYYCDQVIk8f+Gr38KmHXF2K58RJu0i0FhB6u39CnoQ8o4PKFhBv+6BX+2PnSXnPFtYsIHbVWKd0zDvuPNHkt4NESCbu+tNKNl3CTbilg6WEZZbGiZ0MfTZ9WPmvo09AHFBB54vqd4Q+M2+9/+Qdm2bVyv6/g0Zn662h/P/QI+Ucz5Bk+XBOOaFCEHl/8w380O1/aUwv9dlC5T/39D5r+afizFv6SMV+E3yeKvNjx8l6D/4nSHrSjH/MUdojxfBX4HIcelnDgh2Gb1KQn0GcXCWF2CekUHad3QfruJCass/x28buU8qOvm/Hj8HOb/N1N/rEDyxgew8G4HO/9a23ycgEgT1/4AZnJSbii9J0/tsLvimthxqi2fGjNttxs/PFKJo5tbxW1T+jFZKMKdlA9S68h217F5e98mdp6zWLews6dlFH+zh/Dxkg0l/7M0b+gJ1wd9KmLv4q0jxsn9Mign9t/4J/v0St9ONlSYe/88K3mnR+5lZ4s//3NH/wDx4F+oD+chR8juNs4HOIb1I/xgXIF9griHfy3wAf99ze//w8eHG6h7K3jF/2Jsm2Zi+P8kKP9kt8iTnxB/Af3zo9QfQn5v/c/0JYxhtX8J/RD/qz2ga4t8oLa94e/9KcBzW39wA/0BT66fNQRliH9HdBH0xvtAS7BIOGuwSdDHE5on9t/YdhDf5TUrfQUmzyjRT8Bw0iwRFgYBK9B4kD4d/GgiMoHHDpU4AGLPBEsYuLwYFx/uYCFi+Bh4pBBZNMsA1g8JKYvrN9fblSezdEa1jG7gglFyorXhRIiaLQbcLtIiC8lpnPpI/UhB2D6DISKzY+2LYNQkAnUApu/+YN/5DI/85e/HsRYeNQFk1KctobMQD/MoFGELwoEPHCR9rnlafykPRCAWfABsuTF6+t2GALkb4hucKA3+gk8hX9pH9IgcGDb3fmyTUecuO99+Yfmnt/52aCvov6QcgGHskEjOzH0BWUjxcL/AQk5cQIrvK15DPiin8XZ8n6o+j0ffQU31AUndSGseQ78BppomHd+uI9s3NG4RruicsBvP+QweEeXBVzxj7yRs+MT4WgMWHoDJ82Lkge4p9EbuOj2IB+oYimTjz5Sl+TqpXBsnzyaw5NXgGFVYWEyEBrl286jmfclGiSqA0XoaIKj4xHGP/K78EDVzsBRR0PT/fhnPsSdJO2BYLEMHsGjfSiXtRvCA2HfRIA6BCerrSHGdqeUr8OCI+PNkNEP4tAmlKPp+z1nAsJA0LC6fF2nfkYeqRvweOVEHBzahcEv8E8RHnBou8RpHJgmSoABVudH+P9VwhphOODs0l8mbQwm4QUL3Up/wQXpmj69EhZ6fpx4EcIH+GqeEPxBP8DiH8+aH8GLoAMmXoFHv8n4EEGH9kOYg55jNKELPdBPcMJHHKAf9DfKkzIBL/QGvggDH5SHfoJA/EUaJ+KkfF9Ytxfp6FMIT/DRx4MxLPlRNpzGDzgBF6YF4YI2hvDUHsHpF4OyUL443R7dPqRLmsCifagX9aB/ZDxzP1BY4IEL+FG3X/O/wImP8gVfqWu8hO0+ecGW/D60qsLwrsBEA4Je8Q6akan8ZeyTFqrqEVOOCDbWRoL0ZfTK+0XSEJDGDBXEf+avSDtV+IJRAIdk/OMH7UFHi4DnGT3AQ9ePcoTRkBWM8q6fJxyD/Kgb/xovKV+XE9IPhZBz68MrNsoRegg84gQe5cHUI3Wi/fx6TPF4BZa2oF1SDnwwrsZPykQantEeqU/KAJ3kq32B13SVcpGm8XiK8MDAYZw/Q4OWJgSmH+GEeEwAH/9dmmiZrhZOymfa0oQj/WV3MxBvBP3lpSeV0wvpTEtCBfQDHws9hQ8lDLrCuf2PdPQR+BTtl35Ffhkfuv2oD/Tk8gL6CB2FPwXezQ/+YByC/gEcTyB9txrwIcrFxKDzCf5ue1ibDupHOQiHuFFY4C0fBG/fwfgBPPjF4vIh7keBZ3oQ3M4fW/4VfFCkOOFPlAN44V2kM5wC1uMWiaA16IUJzVC7kV/oAv4UPOAzPalMwEu5SfSQfOMh3Wry1EB2NfjQUESrkY4ONR9Vnzyik5DO4SASr39Sho4HkJ7xwcA+OBkUKBv4WFsbtTgoX3wIVrgQh6B8lIl/MBd2toimJfkEDzceedz6foJw2OFoQNZ2aesFPJx+5QVTfvwz9NrPAj7ScNCunVQHJj7JB1ihLwYx40D0wzPojzSZUDV+WjvU9EG5oAfqQjyTjH5iNEX5geaF9o0RLOrbQRN8SBNqE+KgESIO5UgbES/lou020Ju+pocIaaG3xpvbQ00AvKYnmhe2m/iNnwNg9K/QFXCgu5Qj9EnqJ8DHgaO3JCvUrJBlOPoRQSmaOMaRxAGG2xRULrZrpINneGIiGODOfRdDErltfrfdYXtceApLFMpjmtli+NctR5Ja+IYSgJ8PHuVLvO03D5wgAVgFHyIn6ePMj3/xiulLGkCPPJ1VEL6HXgnBaMLA8NHhoSYSVIUq4cKJWeEjceIDTpeJMMqUdPbxo/DX9QHebR/P9hQN/ARXhlM/rNEEYTALBh2YDe4e0ZiCdFQv+HAUBSQ/p+GH8JO6kurF4IKGY/G/lV/hoUVhIMqAQ/loP8qA9mIHNpje2valbKRBc4ZjHPgp/oM2CS10CvAQ/CVeypWw9l144BfLDwQCx48BPSTO7Z9eCYOGcKCRtD+Jn1UTY/yG/kN+u64S8TLiZRJA2eJC+gQRgAs1XA2k+B3R6IM0B/5A2eAJ4WOBl/Gi7fHATeMFWNa+aTJDQcI3Ib4BPohHXo6XChAI0nU8njWfhGkKXheBZ12vDx5xQi9Jl7CUpZHT8LF0TV8AjYMwa/KCK149gHMdYQgkLXyEURAv9YXEDGjn4oN0wU8EvNYs0NHCqAxHP6JhAg6ZJb+k67DUjwEk8TLgkAb8JR7l6oEheEi6lCVh9ukHPhz7Kow4CArXYSIBfaDdIBPyAT+08+M0aBB26Se0QVncbvJlAhDhjzTESX6E4aQ+iRcf5QhdMKh9TtIFH6EX4r8XZJDy2MePjqewm96rYcu3ln6YFMHP4D/YeKX9aBr4BAKL26Hah/7T9Afd4XR+0O+LwVqS5Jf+RBiFcrx9ZFOEDgME8FCydLzgJz7gUC/6VeCE32T8AFfpT/FlTUbezGS8ojwuh36kPPigj15bEHjgIeMWdIUDPJylS8CnQXkiO5Cuy5ew+FK+hAEs5bIfhIUOgBeXlI54DT8ewqFNnhtI2Nftg0FAJXQ4OgsCADZBEC50HjxYKyRYhlPArKmGtj/SYINXXoETjYA1Gk+5sfYGCIDRWENGIbFejOiDcu3aAsEoOClP2iJ4SLysUUj5HB8Ai+akyzNjll6Ch4YHnJQLH/lBUxkEoC23n+BAd52GKrUtVgQx8HVtlXF8gnwBzrxrB5kcOklY8AvAuSiNd1K85Os1X0xrwsdCd1EwQApuX9Aw5ltluwe8nmg1PPogDBMcBJxo4hIv/Mw7RuTNkRKFTuAvCEzgpyd2ja/QH+VrPtT8EPZf0A7gJvngCx9zsqofeLrtADzqAf8hXZcDvIEH0oCvTkc5LPwpUton9Od6bVG2vCBC5w/r0XBUH8Y31kTQD5ouwAP9COctR+Eh+IwHv3abvGg56ECZpcFA0JDRgfQY2XrpGZ0N7YNtuUhEHAluOOThKPpBh8ABNrS1qX3GAicwGCxik0YhsEHausjmTJ0OF9rLqfNhA7eVUUIAjzIYlgu38cin4XQY7QMjSfmAk10tiBO80QaUHdqwVfmy5qDpIbTT7ZF6pSyE2T6Oh6A8GfSI0nRDOmtuFA+cfXggj5QDX+px2wcw2HA1vtLOsAjVPsTBQWPkPAi46T0UBt+J4AUN4LjvwBvBmxHwF5TBY+IEXuKYB5BIwOgrCG7sphE4qScACQuVfoSgAiwEqMZL8ED5qEvXJ/yEOJQvaySMoyCtfPAF6hDbPeDctYOwfymfyhoLABfgiDcT4MvhYLwCD+Cs6YF6hM//4JN2T7xuI3Biugd8o+vV+KAcOKRLPMpFfqEL0nXZCGv4eKOCRAEaB36oyXNDMH2hdRX6mI3xqq4JCrpIWDRNnjmRQA7Mjk6HEw0Jz1rTfRelYzeJwGo4wHJ5QTswW2NAoE6ZqVlDIDgwnNjmWDOnODAPPrZg7QWFkRN4mfkz6WSzcZ2oN9RKKB5t8+HH2hkWJknzk8Uu1At4oRPq1Ro7yka64GUHvLXDtrxpBDjBA/2k3dLfWFMAnfRuF9SHAYBFaR/9pR+laOkHvauE6wkAdLstEWwC4l18BK9e8t31JWk3+lfTh9tJicJDmk6Iw5ZK3S70L/oRcOA/OMkLHmC7N/GF9D/SBVbgEce8EL7ZGt6miS2bgNU4CKzmK42P5m/wFPJiTIgDbhCWiNf9Ju1u6Wfio3toN4u8aWtcNP/qepmeVCFgBR71YjIAP6LdwjfC9xLW5QBnPc6RydePmt7echBZsXzsRHl9b209wt9z1Ym7aPMgtnboXHQYaAdNDkIuyel9ukJrt1x0EtqBzv8d2oMscPChcQqjSB26ft1+sTUKHHxhRA2ny3fjRWNBXl1vUjk+/NLqFXiUxwOOhITgI18DQvC7eMlHND56JtEJeEDzcW27EDyYaF3n0lXg3HjUl4WPi3+vhMGvQm/40Hh1WGzpSXQu0g7Qzy1f8ms8ILAl3vUBJ5OBjJM0eDc/+A0OEz4UBOADvKDha75APVnlIh8mLpdvNf3c+qWdQgeEoYzoNYwkOiEe5fnwknIlHWHIoSr6La09bvtqDR8iIc/cyV1IP1JbDWHM4nC835qYhF1QH14joUWy0KJ94ZipoRUizLZCC92CH28HBDXJ4XVfwrFX/yAdMFnpuv38akv4pdWv4VF+O2GhD9oNLUnvS+eyc5aPgZjWfgww0ZKS8AUu8taDiTipPOQXAQB8ES5CL6mH1wFytq9T/Mo0D/izCP2Bn+xDD99opICS5Un2pP5q0gMKVEDftPEzHunv1eSFYZJmojrSZQYVbQ91dLJ+4Q344pr6ozmroU/Ej3n4Q94yfRphnvyAafiv4T897oQfivIPn0IJbkIB4sPGpsMSL35t6YQCtMfayg/a1ZTfpf69hOgvAxEmAhk34jf81/BfJ+UrnyePVxDWYLvt08iAmaJn8Ok2PZr6e4MvS/QDr2HQIjplbfi5BP0aulXHN32HtpFNPnSYX1QQqkcHw7DPxuz1Ha7f6hfda39Tf2f5raF3Q+9Oyrdu8VvP2OQhWpNYTuLFlzlJwq7fpFsKuHSRcEOfhj6ggPCD6zf8McH4I3F3jZa64AJxbryEm3RLAaGH6zf0aegDCrh8IeGGPxr+qIk/vJq8O7NfSuF92w7JcMv0R5bPSRyzMnYbP1ljvJT4quGDhg+6xe+DWOmHs14f+WDH3gzv23aYMLP4MZLhC6cx+wsI5wjWkr2IYLf1Jv9C8EeuzyxcPjsKqqeFDCfdLgnp4QhvgU/396fQy+ZMry8allJPMrxtj8BZf+HyufRg+8vSpbf5C+1N4/+Nz200zz6/gRt34vCo2fzy82bS1MGw0bfdtDpsr41Mptd4Tkfb87oTh0/nAj2ZEw6F5S0zV8U5gHYd3ZoItXTmisS0VdfcbGYvms7pU+cOmcVvW8DPq29ezZIri9+qSq9Fk3/2+Y1m43MbzA+efzbUdM+Ono8R4+zpc+aaZddz3Mkjp0M40XjKdGRaZ8QqH0eBNCYaR82Iobp0xgoze/H0cIqes2hG2P8yKOYsnhHLAwEqIrNTPvgY7k8+/zmzMXiOIdUExj0FwIs+d3HsYizaDevEvSd26GDu5/t++T7m+9+49zdD/hf5V6kf312TGz8vIDSdP/kLGhDkY7Y6e/o8z7oQ6CCS/EvmsbELtCd+QILs9/f1J4bdtBjgJRbYdSxZu5jIpLjv3vvMfTQo6nbg4V994N6wGmhlk4/PNmfOnTYLL1tqzl04E6a5DzPmXWZmzptmps8bDpNmzI+ew0j1cOzNkypkzPGDUfjowVOxNAkcO3hCHnP5QwOTzcjwUi/slMEp3nhETh6a2pI2OQW+BbjLEWfOx9880Idwoyr+zPl8bxx5m3Lg1O4W0AMn7aGKoPUVVy8xf//d/49h/uzBz7O8bMlQUUSoyXN5pCLhpDZoSuJkRuFwSjo0HQwKaFz33fsbZtLB2WbTt7eYY6cPm6OjMLNU7yYPxpkvjVF17T6m1ellnoVxsvJqxkqDrZrp0urqZJqP+aV+CCHtJg1MCoN7j+8wpyYfNi/teMHwoGDTSLSOyYAp/Fk0/cb32LfMT5G2dfP8d5nvf+MHZqL2SUjkCh7cMSlF5h2bAp80Rn3jLGlM9XJ/LZi+2Jyfecw88q3/YFYTL4OnIXjLyl+mW1J+q8lTapsvDDe++zoW7hDwmx7fYjZ84wVzlAR8LxNaGKrxxwcFTp4/Zv7xtS8YaNV//ad/TUi3z7c+vn+EzDP4By/fNP+d5p/+Qa48GR90arDsfQosnb2ckTw5fIAFvdXmb6c4Uaur8wftzDEWFF3O/5PP/z8GGs99v/wb5vlvbTEbv/mCOXDcvpqkkfvo2JstyWdOn22J80UsmLbEF921uDQNtV2kJk+NNNq8ZaXRsddol7dNc6YsNLChHtpzzOzbeshEu5vK8S0WWe1Qivty8PhH3v2vzBf+81fyotfANRTIRYGZU6LNGIf2HOc8WMOERu/jxyQ+zRvv7K6JTDXQkeDy+M9uepbMNLexeWYzmWhEwEPwvfjmRjNl6JzZebRVoNsaOv/7ziveYQ6fGjbXz8duiHT3AuH/JrXjwKnsSSu9pN5LvW7e6lw0kAkMfQmH/uzvj6+dSOsuXowWrPL2+YJpwYmkVMj8YPL29Q1e+bEQ/fSuxwz4bGTF7bn4E7jl4WOBAz/Dffcr65s3UaZE81MXBWRjxckjtG5ATFqET4FTHvhAkw+aQDliNqGcYSxSfYq0+E1fsjZ4lAbB8MSOr5hVI9PMu6+aZNZee50xQ9OCiiJv7Uq95TCKL/r0zJZof/vapUOx7GNnjpv12+1CFuA2bH/NvHjwHMOsmEV4kRvqHzKDA/F8T+z4Mgv3NVTef/nIiDGzWhetqsKfkejgD+jwzObXzMNPbTRpwh6T3IsHrXBfcwUtzg3SW0X/oFmzIr77xYv6heTFPC88RR4fPWo+/71XDd7yPnTDL5pD+4+GoDOmRhoQtr3if+GVc0JGx0MZ/pWBIvmhTl1LO7+2vPJ6WHfz0FCgCgpAi9d8LGU+vW4dP1bBvy4/B5o8ou2LQp9cWlgobMzWH+wmrceEi6xYSYaA/9t7ppr+y2+TttTmpwnbvsnTzdobbdXwx958xTz4xH7z8LqNZsnwlZxwnoT89IGZIX4QbtDev/DRGWbtdctM34xI2wyBxvED6LVm5ixz/+0D5qr/tNFcM+cmc+7iuZbJTgT8F+9dTjS8qiMt/je/cKX5Fw8+Z9AHi83buU79iosIbJfd/Phcc/evQ0lol3+d/BQ88ha9RrfqJEYWFosuJHIjcvwkLSLmyBqCNOtgISkyH6Q/BdDt16QFYIF3fXdhWPfnTFJSknYlYQcivgMa4e9qHH5sk7/jNnkS8Kk2+oR0NBRCfuakSCuHcPj0HVN7UziS0L//zuPmu9uMOTR6wMyZssCcJwF3/sK5UJsX/KHFTzQBL4yJNxy4VSPD5vCZg2bBsF3nmH8ZvbWQ233MarLoxzVvG+a4Tv387QM3mxW/9U3zvmXD5qo515upk3z1O/yawJ+h7TJn+olDp3m7r9vWJC3MhWsnnOP9qJ3iOa+7pRCRrnDSlWhBpeN7cTJJEtpaWCcJWt22ss9u2cX60+FnUrSt6h34Ofk35Pcgv2OTpy/+qCA4zCX4RQb7FIQT0pHqbpXsdQH5Hlrg3rRr2EyfZLtixpRZZoi27e0JPm7odfxB87Ju7Fi0xoA3rk179pnLZ9gVf3yPADrgH65bdMDE8vLB52ixdSXvadZbKoEXzDUtX2wn8GfIzznSsU1TrxOgLjjfa7ZNGV+/riAC9r44aVUxQSW5rO+bUDRE2uSi4fSzFtiIT8Nd5+v1582Pbw3eTIvL3zT+HgymisBaQwLdTh3Fwg71ZKGuz2ODN4H2KFqkzgqzisF/zU4EHITXK/uHzfAUa6aZMmmaGZ403Rw9e4gx6JZwq7n5Bu0XGqCuu99+hoR8cq3efkwGryzl02RK+tePRR8dnb1w1ly4eIHLx4IVH5VQhl/Dt+EEfqcaZAG4ssZcogVlCeCs9EuLbAn8mMWvGemDVmUnKNZwyvrGnDx73AwPZs/5F8kenuQwXsWxwJeAEvyxeE+6RCX5sMdrt//ErvArwHPnafsmKa/yNamvLs6v8anLVh9MhhpX/eybJHU6PyeUkSuvKmzNMs8Cqi5b0UNlK/9IZetJSBekvzTl83LA4GDitvg3yr/v9bd0dc1zQ4GOUYDP0KqYnzEu0m3yBBCz0XvC2K+c5Na8fX5SUmZ8TBApgaIngqRCYsJZCyAID1WWmx+aYszpvEiQ/KqMJGEUK2ecBc7SJ/tiqmHUXTpQJL8NKDq4TYz1gZuYEdZ9NGUw3ieiyUsRWfxZND2Nn6VOOSMJysDAkN1KOjgUP55DYMU/f86+gVw4F20xlbQkP+lcFQ0vW/B0XNaz4O/CiXKj46V9Oi6rrRq2judtB14xV8xeaTQtQasqaCFlJNGoSHukrCJ5ivJrHvhsmzxrSMpG5IT3v94q5OWMhpbGpQiFFtg2IrSQEPNQG8VdElmPnKVVaHOnv60l+i3WB/5S245ddRd2+9hpnxUgrCE5/Fk8nIzWl154JHzLA9Qty+aTohR8LxCfi1oKueVKu5j9w9f3hWlj6puCscAMFSZS+NUj68NgSzqlPL83OrvmzqV3G/ynOXxfgH+fu/XKhWasP5qA+oLvIAb77VZjneesna90FD+vWRFtcW1JzBnx/VejNiVlmTfLmFNjz9F23gjiSy8+xh/KQbBm0QH9OHlw1Gw5tDsqoKanlXOW0IaG6zJxkgkhc42pBH/XYpOviV4dL7YdbbTjyFZYoZitUouEdl9C+KeW6SRiTcSYSPDo5FXvX0nB6m2YL21/QVcTPmM7JzRdbKm94xY618bzdhMCpz5YYZ8KkicxoP0zr+wzz7y8l7YDP2ZmT55v5k615c+eNjf2NiYCHjTFbqn22pAHwXIwD3ywXD7k+qNHnyQ6bA2Fva+kzz792xwNOvz0LUvNmqvz90faNm1dF75BASz89fT//Vc3ma0XxszNIz9v3IPodD5+hs4CjYX9avi7Apt8C5phxHgVknlek8NGNg+1UsA11wz0B2aRGmyXGF04Atl1/OV2sCUY30yUF/BuyW2Eg0lm7Y3TzZpFmAj3m6++9Lh5z9JPcKEnaRKYRYJeHIQ8hPv9d07ryHcrUm/HfGov2gbh/W+/9RUzfeiXuOphopOYHuUtBnR44IMra9saLZMBfPxj4vroQ8+bI0cmmVvnvi+dJDXwdT9sOqFGRNNH0TC+OHQdjgEYD279rtZXUY33M9uiry05vrT2pkvtvWerMfceXsBo077oyF2NoWjyRfk1C541KF0RPYv5EUKkV7+ZAG6zpvhNHSLcehl/h+SFg2IeBC8PDpw2WF/DPyY719Up4N26JPy//vQV5olXvkZHVJ/lf2xU8bks/iyT3m9tQDR9BDNI0fDICivkWxYtPS2QjvAkdSXq6OnLCtc7Xt9Oshq648j+LJCeSO93NPmi/JoF715WIo3GB2O9KuB948odjzctsrzeq20QOpfySZC7GyD2ndzFRWk6YDFV6FCqnjYyQaNH3S+9+Tydm/UWTT4neEeiW2QWf5ZJD5YuWJ2n+sjHY2DctwGgkZUOGI8b55rv2uXRMQee1k2oqKvnRYtmemD0WiMXXEF4hnv6FV8yomX51y0nf6tlS64I2lAJULzvi8tfQzqkK9w0NLRGmCog3BbPPEOT1JU62a6pKDzjieMkRALe3ZbtmvikJVjcvGB2SrCjPvpp8mD0zQcqh6Cf5NyhUE7+Kv7FoyO/AyHParxtNAMgzNDKt8m2ADc9SFMevqJ0HZhd0HHTeiksK929hFOncYGASHNd60vFqvb1U/g0wLYU/8YKTWx2KKwDCN82UhH2elHax/OxshIEbRYM16++XHYRd+3ybjpwlUmK6wrwiNXrZioRDmni5vWYUlwQhBPz+4BzxPnapydLX3qOYhNBhE9uv3zQPLk1+i7HzTCCO5GZFV35qvizBH/bffLIGIwV2Hx42xmHg33yGekusgjjONoWR0wEAlbdaS315IzYtC9+rZr72TzwrLrDc6LWcTBoP3jF9V0Pt37HqFnrfvLQpb7kI1lBnQL8GfEzZcvgbx/hscZ05dz0Sc+XLy0uNgYShB2a6HNJYwiK1b5j/j5EOWmmGsYnwCOpXh8uvRhn6RBhJm80UUzrkxbynWw/vkmJnCtv3XA2//r4u22bPM71dt11dE571qKmm6eXwmkfQsQGZy8hXQMu8kbzzM7RGkpvs8hA4yljo2R1KSF/KlaBppsK04HEJB48MlpwjSlhculAE2qvAl+y+xy06W66mVP9i+MWJ3zngSf6SeDPMunBlxwyd5X1E8jmYaIkBk0oodZod+fGEM5KV07OoA+jPO0J0yboA7aTPvzUEW/r6u5LKArLZi2M1T0oC68cW5Zfs/LFqhw3F8a8ctDfT/HWqFCPTFoKo0oe0wVpJVWUKiRrF9tCPmYYRWfxZ7H0QMhj2pB/VMLTiOP70/fTSYCuk+vlHnw8PpvqVyI3T6fDvjcNWQQRDdbFqW6h5tbXyXDLhBecQClfD+LY3we/Eb21iS23ThzRR7MmLY9VMTCgNTHNp37+tJklTcMjRYcFxuZYMLzYPoyzX5+5jZvQF3xfMM7aUzW6G9443zPm4uS2ab4ElPCmLz47PfjiVWYGyoBHNu4jMwVi4dZ0PlQHoI7DUa0PQciTsMC+VF58SFkkcrLXHhQhv/Cy6LYn+WgCleNz5Ie+ezB2UUYvTVJVEQh0+I9PXjCrFtwR2uOHJ0ev/ZjwIOix1/qhb241619709y+hHSD82f4wxONR5amomHlWfpBwuIDp037Tpu7l0f9A7xO7D8tIORn82cW/7rpuD/W57yv+ePpzW6s9SwCtu37GjvO48CHT26NGtFyFlOU1PUnUSxDRM+eIToAADDNSURBVGLythr+jr54tdweCHjMGFxbdjjATp8OiKj3Lfuw+dJLn7OC4aXdJBhkFgoyZHhlBEZakVqYYDZHOEmwoZxbF/2c+dKLj/DFFWuWzwgFG9Ly4KbrQ55edEKHhcNLzQeW38koYvEZxy1rByG/auEd5umdj5lRMil+9UfbzI4jR+gTci1wdY7oGVszXzl4OIrI8QQTzei5SeaTN3wqhPbhxRqOu9ug7XBYZfxhcHI8PA5CYn7ERN2trYPdIpM+iynXMR3dQtStl8VkAfmbg99b98lzpRDwcHl9C+3+/vrN/9q8QJ+DQzis3+mmpofzCJD0EtJTIdhWLUwWbBgYv33nZ823tvwdC7ZHf/iG2X/S2jzrxi0dc9Nip/bBZ33cJIL07uWRBo9y8Bl4khN68UFmgYItH50k5UH8suwTqMPsPnMDBLz+RD8Ezs2feflY4KIaxtMTJtM1iwpgnNLXBUqZEKBJO5Y62Tg+OpsrFD6sxichH2nYdv5AwTZO5hNpqC9d0pJ8aIErZ90QJotQ8A3mEMh5kDxONAeLlOPLjzi/ADH8+bEItlVJmXs1PrJy5MKQNWUa9NpkpTOyNqQjgucq6O8plqOAE7RR983CwuPWskgNQZyPP2WY5E0HnNcRLq7DlsROrE249ZYOw7x0CQh2901bf9x35rz/jaxbfanHm+Vo9C44WfiZH1W4mHwGNAn5aBi4T1HYVhSF7dNez6JrhJL/qYxQKJPHX3s8FjZevwCJw030UK/QAUIdDoIdtko9AFr7gPYQO5FR2D5FYQsYhZPTD+/xnyliMj4Oc1AZH8HxtKZQkKL8JutRdPTxzLEie2Dyc3fXRPxqMY3CyfyrIQU+MNeITlTM5y+0YpTyBzB49Wzqh+pMrGiH2UKEhA3hDQGIz48nmgMdxDSTLkxty/G2ow9V8mn2WX0sQlzTMp9A1zn0czF+jXSjtHy6fPt8xcz5ZsOOBOHfCt6VGFkD0h+0tSzqOZhN5N1iTlM5KKfLYmv02hsdiA5MeOgjPi8r0XyZxpcQ2eXSa7XJCxnTBESWYJAy8vpakMjCkzB7HmHm1gNNX7R9/al//Es1N5cNa0EouPghq4uVtqaVWIYOKE/owGW3Wi/SqqwpTXSVqv04utOH3mbOnHspHkmhXhKSIuT1W6/bz8D3UviCW2ghHSYyAetsEPS///Xj5nen2TPfBaY3+rJqPrblkZDH7GAdvqYa47MsbZwNSypBetKj1PSnogJCC9Skkl0mToKrKl7Xp58Ty+8JQZiI3ThPsF8HMrsGLfHxZ9F0H1GwZ/6JHRvNMy+9YdZee7kFIYHZy1tqRbABWQg23JzkHmvQy/j7+iFvHIQ8ds6J0woWBD22A9/zxwfM/R9Y0bHt3Q89fYp3o33yBrvZA7jBSqBdHzFwUfmbh79JyMvsAQEvVdqHKGzjo7A/XXJX4ecSolVU1JQxTilgz/XQyGfxZ/50Xaox+LhvyfQrzT1/+iIJhlHzwPsWtpx8GM/R2RCEGnZ8pQk2YPSH/7DPTB06EQq2zmJZf21CB/gxYaq2BMvHfduPvMrbu/HtB46RnjJ01ni/hSC03YVcX0tQp89hmzK2A+ObD90/gNWK72WzpwYCHil++Zqff+P5A3MNNHcklPGBVOMaCnSDAmX4NYvP/e1Ys+QnzcY93wkFA6Aw+PXgziMMdOlJQkVgICCSHASHOPlaWXaCQYvXAgRwH7vuPrNl906+uAKCDd8vJB3JK+Xm9SEgq3SaprrcJPpaIWovl8HWaGwLFudqy4jXO/427X+ab5jcfugNsz34eH9/cBY9yoJ7dDN7tIU6/gW/jfX/Sl6kjgxfHpt0EIfrGVtdHfw8JlfhWskvM0gRf2Q5XRpCdGpcQ4HOU6A831pck/K3tmQJncW+fM615qkdXyfN7BSd2GmFwsLhCFaERBST/lQUPqm0u5f/TPi1MmBkQV3Dw0wx5+wCs/SGa/i0UT7AK7g+F22pw0G4lXGrFvhzjQYHNrr4oh75MlqvSSTtGtOmYJkYO7VFmidgz1blYdLki8hdS6Ek/o3Hs01ebO9lfG3Td7tm8hAQb1xDgTooENnky/AtXn19+Q7vTd9Fc8uid/Juq04JhSKUSxIgbhkQhFoY9mJbXJx1OA++SQJel9PJ5zx9Y23yfr5M4tc88WyTF1tPGT/a29lJkjV1NRSIbPJl+Bb08+cTLchPYexeOml6b0ttHqHWq7j7KV0uNg8dsN4HoVv1zj7BGGXDyfZgfg7iOCHhxy66JvFl+Xhlk6ea2SQEJg9sQ6LqyA4cT3r0KW4C5k10Q4G6KJCDP60kB+OS8/BvS7qFTPytW0AkVuwkQJCIEMm7SQFwEIJ6a29dgs5Bt5agCFMUDhNVXjoAHtu6tdkmz5Zo5APt9G4dxOlty0VwQN6Yi/GzetVMkb8t/MuaS1x+B0I+0F5CJUbCEiFhQUnCki7xjd9QoIMUEFVcdoiF7Ojyp4QFNwlLBglLerovx2CkCQktSNNLS04VYVKZEKGqeEE2WrONVa7bE0voUKAtAVkCR12ffk4tKoF2qXlyJGJ3TfhqGfJzEn8Kv+ZLr9Umn6NtDUhDgZIUqMcmb9X9fChpwaCfOXdNwiAfZuWgWtpQrpgmV0kK9KxNfiS8zaRky5psDQVKUaAem3zSefKlUGwyNRQoQIG6bPJ0+wPZb2ALIh8zCbtYOEd6gYY0oA0FqqGA8GsO/ozxM9UeC3vyV4NgU0pDgdwUgLmmtPyN8TNVGQv3GRLyZNdh2yY0I23rkXCO9NxNaQAbClRDgX3b3gr4NQd/FuDvbtulq6FOU8r4o4DIW8I8xq/t83dkk6eyocejfEwE5OUOE2jjGgp0lgLEpDEbJtVeln81v3e2EU1tDQWEAvXwM+Q5CXll2wzq44mEniHo4bLCFqr198y502by4JTWhCamoUC7FCCmlDfPLP4smt4uak3+hgLFKVAfPzc2+eK90eToCQo0Nvme6IYGiYooIPxMxTk29Xi4eDpr8qKyi8YjqnsUtu2IwlbHD8MVNbMppqFAfgpEmk/b/Bu8sqbxc/NGmr9nJhLk5OGhWHN2HN7C4XOnkw+PAwDOCirmND878tXlz4BRQ37NSB/ELMG2TMKojJ/nCsBdR7eaXce2cpsHhvrN4NCAGZg04KXBlr0vm7EL9uSkixcC7AlSiCa3u0jYW4gTqevHs7ikMoCjzy2eemUYnZQ3BEh50DgIGOgjbZO4TvhuvUXahXO54dCeyYOjpn9o0PT395tJQ/EBsHln9ul9K+cs4bJWzLnczJp8S9jfHOn7EZs8pZXhW3CWL5+vKh2n29w/0GcGiJfh+gdaeWbL3taLRgArbcUz3K2Lfo79PLTX9cuY4sz0c9W8pWbs4kXTR30grs+DF9IwxlbOt6csHj1xGfNenvqlXM3De06/LtFmZyAEr5i9Mozr1APqdutdNucqMzJpWSYKQtcDJ180Ww7tzoTPA/CO+fPo6ITJ5sz5KXzyZTp9A5s8FezjyyR+zRM/CK0dgHCl/HA6sWXo3x/sfdL8YN9TYdSNVxBT0fgfGqOjSRNOJ5073Zhbrhzhc6/lXs2x82fMhm1PgjPN9mNPhMe7YrBggCQRD4z4pRcfCeu/eekcM3/2QDgILgw8S8eMEkL99EKj3AX1rB+3n9lgg5TnSy8e48GaVj+AgYMwkDsoddm99PzBWz5iTh45bdaM3JWI1mef/m1Ow/GvH75ltnPjUPQl0JqVdEqpGUksx9CJjuxOvsXeQ0/+0Hxzy3p+xpGwqxe/l59bPtQB3wa8V4pvqdSkfFyh84M+lH68eclMc/dNi4ltbDtxRrvX3bgijLZ0CIKnbFuf2XLIbKCr6IRHMcl/7Pr7ws/t3TYLDhHNo/LDigo97Gfo9Vtf5ktFssYTgAWHrGpE482Cqzrdrfepbd/gKnDUcpKckDaBrv/sxtlm7XWrM9Fay3ydAEYXyjzzyj5OfOjxXSyv0Mdrlrzf4IA7OPcoaHBjXfxM0g0ziGV4nkGI84uE7bzDeMd+ntjxZXPg1B7z6Tum8iUF7q00MeAiARBw21EzdmSX+cSju82pc183d73tF7gE93AiJix13Bc+OoNvxakMB9RGePzRV56jyxoe4VlaLiPQTdGTDBjoD//VdTTDTdMgPfe8ngTPQ9/8e8YLby6+gfHll/8Lp1fTt5gE4C7n37W3ES8e22Me/MYWou1jZuWsGzje7dv9dIn8ohVz2bJYhF8xL6TBc2XOz4FTu1m4ob333znN9F9OSLblbJvlnlG095kXdxA/bzXf2vJ3Ro6/xZnjIuhFWWCa06UlffOvbgsDN/PYm6+YB5/Yz/z823d+1k3msBaG99+1lO5JvcoL10uR4COcnw9Z4BP0tdCVztFZeyNpq+RAo4tvPGtwM9STW0/F7ouOC/pAk8/gzyz+9aWTkMcMYrtlLHhRKBq2ueO/EPAQrpjxKhWuIOC100kQ9NMEAkGwPawYF24L4dB5cBgUqL9SHKhc3AmJAQ+3YecFc4S0M5w1IvUjXjR34PC//PObjSHce92hvx744Erzz//jJhZsH5t5XwvKeJ3FpAW4qukqlYG2j702hc8+x7G4um8FxvJp+/wb53cpPfIPnNzDAeBUR3tR5tqVx4lXz1GbX6a67uT6cGiWCPkf7P0q07wuHISfj5+Zaf5p25fN9fPX8EmNck4PEIKQh/vir11TCx248Ip/wKN4i7rnjzcm8jOqrIuuKBv36t5PXfrwunXhBM5nG0UvvAQlfCw+YqzhJs6fxdP72SZPqg32HEPDKRNGQ7SD5iOujkHBZQdC9pM3zWdBIPWJL4MCwqgWHKh+ODDHvpMv8LGlEET6YxqZaMBo40HAC+3g/847T/Ek9dpbPzInz7aesc6TZ12TVkDbu68a1SjFaIuEsvxqeT2B32M1RgHmI2pvLbxE1YiQfeXg4bBS8BMc+AgTqygslfNSQG/UNX3yUXPhojVY4oRKzc9ID3FAYJy4NQtGGW8oXVDGND+LIsYXnNfEz3JJOG7jEtd6+mcCP4ayuXx6P9R42ILkv0xYEPf6NRFO6po5NW4PlQ6MDQoBrsjH67V0nFvkSTVgkDYeBwXaB6GGuy9P07cOEDYYHHAycXEgrW9BB4cWnKfgD99gFORxj4NlG6bi3UrCafjV1F7QO4+rRWGhPrpIphpxqCPNrb1mUVpy76VR+4SfgdxOEvSuMsZI+/o24GEe7xjz6KeCPJ3Wt/EJ1MrgMvJXZHcS/7e9u8aqU/6+7fPYnzWhICh5BpXsROg8MyoTPSexY+WjHsnn61TBI8mnvMDZ7bgdR2gBi9aUC7l28ChUUQHgoG0ygeHuzk3715mR5UtbLljw9S1sjz6n+yDUhBPoX6hvScuBpdG+1Fbj+/CXON0OjiN6aQEpcPA1H+tnDSPPLj9JPHwoLdA2b1p0WXysIBH9Rf8hXgk0BSg7gtXOx8s6vdBzgAvyhPgUKqB6YM1L7uQFZUxMUUm09fVtYNlmZHW/hnytmwGapEzg2hwH7uUvuCl/lfwMfJ3dNYENKEA0tAmlhcVgFMDEvEmti4xuo0WgcD4QJShAGCUkXsDA3HEO4aDtyXVmmKUPnT7ApbAgchjf7TipJ4Y3BWJ4uYlFwoOTvdCVDjBvDe1H4qLpfcejbVAxzcPTt0k1alpigQ8upDv1jzxn0UTMF1KPZT3SgIKIXPxK0OnwUnq2r9vlQnMa8TOc1MftDPiR+dojBPD2lOTCsaAAeDyoMB5RTxpuDnhqMC6IkkH1uJL2JkN3JyWNtmUwivVxIJPCPkLfBv0vZePi9H10GbjIqrhdHpo8ILP4s3h6qMkLIhgoEPXissIjtMMhya15WzLDJuWReCGQCAWJz+P7doRwPofoiJN68pRbKYwHl0rLr6AwaD9f9W/1brv0kO4YDCVK2//6YX6JzOLPoumpqDgKQyqsJ5HbHPS7q+x4wDOjQho6kEnxDlhi8MjZbZRmF39doHbGtFtWp8N4M9UKYVr9ZWlYvl+tzb0ov+aBj2ny0mh30GWFJV+m32nBVkDbzMQ9J0DLgkqOux1zFt2AaQoEtnhEZfFn0XRdzaX+HNc21RvYOCQM3kyftJvuYthPHjzTAxsjoMlbTi3Kr1nw4e4aqEWwCZXxYxRTAXkNV1GdfRyaGq+vTU0sXlgUwqo5XsN8bu2Vl/mix00cXjF9rkWj6/QE3ga/pvK5p7Fvqt1inuRao+Qawef30gaDmvi3UAN6AYdCCMeB3Y0asY0EcdDKQ5v2nQxNNa2Fl5e/qfxM48TurkGN0IxK+q0IdzZm4WUJq560M6QTLkkQdqLuOutwF6t0XV2fwNvg11Q+140MnqcMnfPE1hM1ej62eZorSTruoo4+QJ/zRoJ6mteUmkCBE4dPl5a/qfxM46QfswBs8O34CXh3PfqZ1+PbKzuFUGyBslOVXmr1VMC3Pr5PIiNe9VtcDW8vep886pPLvLlut75uaNUuDi1EGX8R3r7tQDNifUv1+fixHbks5fXrPZZln116yBeCbnwd4Sdf7+fFFCl7UoYNvA7tZ9XItBgOgstE9OXjkW60Lda30ORr+E9sV8IuqUT4CZLQssY0jtuV+Gbq69uaJrMksy7IWgc/o8xwdw1Ufkj+Mj4QdB0En2tDLLti7ZadJ2xP+vO8ZkP7qbgDXTtfDL+zwQFcscjxGZBP7H3Yd7JvUf8+OrsGWk4Zfk3jc1/buhk3acC/BbdOnPSXmXXW0+my1+/yyIMkJGqQE0lVIR7mmjr4GeOjNpu8z44Z7iFNa21FaTjeU06xjBVZsYCPlR0E3C8zfTDjPs4xFXSyb4V2YOB21pK8+aXwHH7VbS4khHLg1w6I1jgnkvnx6Ol8GyHqeON3+8OdwL38iLdVZGzDr80mn8SwdRPPtXO5hO1EWHZEoK5ndsbPX5H6O635Sr1FfPTh1fNmtWTBF4I+V3ffunWKzbFK360jNexMdKmwBRK1gEU2+e6jUzyTtpFAjtCNNacDilOsvjYC7iYN3IPgdTX1rbcuihyZvKxmmzzNFWwPospidiEJZ6QnId6JeGxLSnR0Dn2n3L6Tb4RVyUSDwfm9bTwPh2n8ME4GBYT8jkMjcdwpxPuKO9CGDW/QWf/KCV0lCpS1fNse/0JXEv73maRGzyWc51ITDeSLSGmn+Ovp7PmYq6n+WB0q4F52IkmdmnykvrI+TjUV2gov8QUhHjlR/qOmktgFmnoZ+av515ff7pOnOURWcenBPge7FzickY5mDSnb4YLhxdzSZza/Fm8xMWUdDKFn59grkLugUlP9EEY+jRdb357bfbRlDaAOGsQJXU1ox+ERI7SNLXpS8S1tqIm2uiWxvqUEaPB5+BP7x3Lzt64weJ4/bYl5+KkjLSktNGiBKBbhe/uNTTrOdx91CSJXcRIcYAL97GP2oLqwZeh355iRMG08PVA7Ys4NxxKLBzL7VstbkcGohuML8K/kVeWFNnnRZEilIb1GNCR+yAwDF+0W0KCAc7cwVs0MPsJpPE71xU/Mq7p+1AUcRs9NMlMGrg2rljPloclD+8HlIrzYGwyIOvAIK6/oAe165eCRFs0HxTPd9SCgZ312SRUooA78yyTjK1PbKtvh3xi/+yoK4h782o/DVPRh1f0IZWEhnZ0vzp1Y3Qtnqp5kUC8ut1g2a2HY77isRRwuxoHS8kePPmmgwOHIkar7Xeqq2v/Zv7xopvRfExYbjlFSxOB0X3Lfav4Oc5V/eHid/WZH3iTcvj20+xjL2TLyN8a/Hvk9CA2HXbu+0/7r5q02D39nI12osc7gFpk18062an9OniJBMKOPcKJ1QMCu37KZirzCFgsBW3HHCQ4YFKuC+zL1oEDFuB4Qt0c9vO5pProXcThDQ7ui+3QTt4LpQnM+s8B2YLEt9cjoZebqOe8JU2RQSMQ9f013BvTtM/e/f7EZO3lQokv50h7BBb70rRSIQSF9K3G4HWpkeXCzVLv8G+Sfs2SGMS9KDda/fv5qc+TMQfPQ468TTx0y9/8EHQAm1xYSiOAfz5U/hPbK/6oF9oYs5B527MKoO3R09PPYyQK7RcKM9kHjLHUjBXS/e/mHQmj99oQxhduV9h77J3PP5+1BcyGg85B0GFi7vO9UEwtikoTC5Tq8maxacEd4YYceo2jTw+u2mg1vWH5G3tuXBDLRLShH2KUrsggvAwdxbt8iXt5MGaYifsabwCA0IC4d0wEKLhNmrOI/GBgHT+8z67ftMvf8aXzUpDGAK/CwGr5pX3wbon6dTCPcC3v2mRW/Ze9a1NhJR4C58zqNs1u/XNeGslxhCCbCdWqb920I99JvPxTZ75Fnuxq7CGsng0J/hShMo+HKPmOCkoExMnw5a84LaferTFooVw8KaHMwQ+FSFtgz7/k8DrOq1vGkueAmxkU0H9+gEA2mbf7F6NL872nOmiU/aTbu+Y5Zv32ruce1jXvgJUrzDb5mdT92Ejj4WhC5kxro/tA3HzOGrrKry6H+u+lY6Yjml7VMrODnk2cXmE/ecIKP8tDn/cfwuhgLhYFRtUyGdaw03t+fcFSIftsJCw4ehIclHm1ZNV9Chm+70mNU+Bnffxw48aI5R/c3f/VYBF/0SQ7002Nq1QJbisgJt2+lDrBgKfnr8q8TDvfJ22mE6iBBD5giYYD73AeWf9ScuXjKnDhzjIh3LhRyJoEBIPz8nU7bIQOHTnSJhiQIIq3pSecdPv1WVG9QhjCalBNEp3sKZ+SDGUEGg2TEnZw+hy1ogBX4VT6grLjoLT4R0t2VoQGlbh2X5xl01YMCeTDQl878Lc6Oy0Tq/mDG7VvB2/JpcX5N429WdKQC5S+ZcaVZPudavinpMLU5jdaSjQWg4psp/RDkkmp9MUe5/eNOauBnXGqet+54Lekht25A+/pdSpHdY8jnyytwWX6pcZBVaEp6UpssP6+gvrX0TSmikiQ5x94tDG+mC+nNNI0/y8hnewolvxqwKsMzCQoKVJtcYSALhp49eZ6LNwuEA8f3cnwWQ5Tt9LTOm9w/rS1GbGlQQkSSIEoAryU6i75FKoW2AUGjJ05f/k4IeHeSETxE8ynKr1nwUr7Pl28g8tA6D4xbRx66lynXrSctnDSe0vL0cloemnYC/yy61sXPkU1eVHcW8GgyzyfWhMMUyAp3gkytdWQRDh1cpyDKw0BZgrK1VZ2NQRvgsK0MNthewDerX4EvODJcUyrMr73Hz1ltrrtf8vAy6M5vGbS+Vee4Qj15nPCuhhU+RlwRmhWB1fVlPaNf4ZKUFclfFz8HNnkqnm3xJX3BMsFHI91bfRJAc0XnJRoKw6sRrlCTV8wqGFMYK4+mKw1aMH1Ry6XIkqZ90RR1XJ5nvUCWBV8lM8NEJffatkNb0FT2LmcNBmnfvq1vmYVX0uXIUEza4V83v1Sg/DN0ounkwSnhQG2Xn4SHRCDl7RPwkdxjDPTK4CF1S/OK4gBck0wOUqb2y3wxm5ceup4qnsHPGINCVykzD28LXYWPiypM0OTtGmm1/Bxp8qLBl/WFGh4fgxb/bmfnFWgiwMp2PAuN1kX3Fnw8qIdRZesOC6CHPGXkgdFldvsZ+LoD3u3nNBzbbW+oyZfl26R8KUj7+Clvm9ttL9Di+gU/D19LUq/4VbS5U20BroxvF+i6n5SWRRXvFoMCNGh3xdPMYbcXlPTzdYHb2W44XynVQXW7/upa0lsldZKu1fCvy//F6dnJNhfHrskxXihQBz8PBnsTiAZgdLiyvs3d/DYU6CQFquNfy/ezR2iffOMaCnSBAnxvcWn5myy3I5u8aPJi2ywSTiDImfOduZkpofom+hKgQGjDLMKvbKKJdpPZbZNB+BKgWdPE3qVA5fxM8jyyycsMIjbKwuHeJVyD2cSlQGiTL8yvgebj8vvEJVXTsnFAgcr52bXJ49U3zSaUnG7MjDnRGRfjgJYNihOEAppfk/kTAn2MuDubvycIWZpmjFMKaH62pnN5w8zHv778LTZ5DATr/H5W+jilbYP2OKWAy49u2F1jykofp2Ro0J4gFMjizzLpFe6uwYzTuIYCnaWAT3NxNaBi4c7i39TWUEBToHp+hk0+Q3N3NaHssEa5eW4oQLferJhr8OFS1a6O3Qh8CqUH0dHzo+boUXs4mO8y811Bmidr7iicoSJuYIgOuiG3bM5VZmTSMolO9FH/07voADNyGr+r5tlDj8YuRoforJgTnXSZWKAn4fiZmZ7YeBQOr9NOt0nHN89+ClQvj4N98ig4svzIk+g/YguKwiLoraWz0eD93dXEQrjfeNcK+sBjrvnL//PrlRMEE8febfiAZG5b/NvK/62obtr/tNl0YB0n4PrDvv4Bc9OSSOhdszT6embs/FnzPJ27PmmAjlwkOHbiI9A/aOPoV44PXrNyjjlzYVMYzw2i0Bee/QbH4YAy/PschDv+gde9tywy8xYspy/vptL/tLD8eD46GpoOzYNbv40utcnrEi7IkuzXX457JHZJ0PzZky/xcxruIXDzwBSINPlI3rbypzWli/zNSreaPEH3BbK9b8wWwDVyPH4y0gl4eCadFNnGEZ1NH08cCkC447gB0eA3P17f8bhg8Ez+zOJfnY7CPA4CHkdU3//uuWbtbWWP0vMUnCPqwW9s4WOGR+kM++vnr+EcON5AHAT8p++Yau6/c7Lpn0/n6qpz6NfS5NEt97sfucII7tDwG60+uyeYnwWM+RI/GfI3I93a5Fmwk5QXnxldhSVefDedkBoc9E/zZ+g1F2d+NO7SoMDIijlsmoGWvenxLbU3euHy2XxsDX+xncSfEi++y78ST77VpOJov/DmRo74wkdnmP7LOyvgUfED71to1v94p9l3/DUKWSGPYxTwla2Yie6/c5rpm7E4JuAZ6S7/PPDBlebYm6fMC/t+bKYPzeLziWLHMnQZv16rPtLkC8hfxb+xkwuC+H7MHDQR8G9Zv9cI1eDTPQrs25pyA0oNaFXBvy7f+9C8et5sK0R9iTXH4UYzaOq4OEbOsZdD4bT9nYV8zbgULR5X6d218iQf+IVDvnBQYd5zforWNRHg6+DnftFcYK2BKxu2uZvfhgKdpUBZfs3id18r+pQZxJdeRxzfN0qCUm4zkzr0qYi8RgAtvhddcOUmboESl/dgQoG/lPw6+Nlvk3dtPFlh6oXLZk81Y51V4i6lvm/a6qHAqp9aad9Ds/izQPrcRf6za66a64/3oJUdFQi+LEDfhdK4nEcuDRGNePKgulNPFYr8cOHk1OFJChd9V32vsmrehHxku0oBfuU11Az4mE0eGXgmcW08QTgxncgtM5BL+d3HXg9fMSVN7IgSbsfHYo5sN0M5ZbacIZ9+7a1q21meLWeoW287axanQJGcDmZL+pO1pET+zOLfWLq/7l1H36QE7B5JcYHwZsGmBHldgk5rxKEg1+gRDqhb3lp0UtKzt5wkYIov0zY+qz3ajJRS+qWXpPlZ+Fr8svwd3yfPMwL9sEOAHngAIMKGUZF18fSTh0fNsIm2lB04tds8seMrDOpuObuaNgb00S1E4oYHaEtX4DbI5doJW84ETvwL5lnaehYt+sqWs3ct/6BZM3KXgMV8TDJfevER3nKGhP/9J+lIhuHrUracASradoZQrq1nEVrI0uLWLJ9JF0BQ3cG2sw3bjhFeu82y2SvNv7z2Uy3wTUScAjfdfRWkfODS+TOLf8N0KS6nL+aUnOC1gBW5kD4LgTJCO6vMJj0/BewKKeDj8lXCSfI3LZ00eU7msYJtlGXCQGnI2V1z4KR9VcSOhDtuuT5j1T/+AQXKa8c9s+WQ+exXN5i/+dHL5q63/QIXhRtf5MxvaO3vmD/P/PeP0zcAZMvUC1bd3HJm23y9+ff/nSahFx4xH7v+vnbIMKHzrrprJTNrGX6FmsL5Evi9EOGUxl4oX8XAEM5FtfCKUWiKq4ACdfAz7a4hF0wapX0q4uTh07EmvnhwI+8IWHvdsgwBH8tWSQCC+rffPcnsOb49NBXJbgRUgH3F76cVf1fAV1J5BYW8/+qL9CHNaXPk1FsGl6CL7bWCoidMETf9FGnx7fJtUv4iVOqwnbsIanq/fKF8NQPrReOaqxpXxWM7cCXy2OFr3l2DI+StLcj6RcNJlFxL5gitJSfBVR2PV+jbR86ZVSPDZtN++5UiGEsLS+xW6AZuedp6+5yjZuvhPeFFyXqCypP/UoBph1/T+bsY9TqtPS+8zB5T0IJlj7xRtODVROSnQCCH0/mTOL+gvLb75FnyW/HP+zQLht1WwB4Pt+bt9PVdF5zsKpgyZD/d9qHQR59896IT3HsRt17CKdyFQLoPjoSvLuxv5Y0j00otMvpLa2IbCngoEPBxtfzMZ9fQAOGZobwPdE+QuWY21hC1q0K7KFjGRdq2Je72ywfpK8FI0EMjdi+dFlj2KT1m2+zwq3gvLOLF6NHDAWLZtvk2ie+Tmu3V2jvMIy5uemeWm9YrYSwMpylcvYJn1/FoUw4n8TPtriHHM4htIgA57Po2WZ1xo+CCtMmDUw2u/FswLWOrWQBvAgHOK/pKmFe5wj96LtrFI9WyP6lVk0e9LGhjgMkB76BPBvem5GlrY8NsJV3It8KnAUgp/tX831pVT8T4dtBMGpicihvMkc2bYSqJeitR+BC+8LX4AaYt8TnSeZ+83X/Jsp1t82GYCoDtMwxTRbEwpW94bkMhQnVTW40Jy7OnCuHtA84joH35mrj2KcC8nYM/Y/xK1cbC3vzFccNk36u80Iu4TaIzdxrnoYDLj26YsmTzr5LXQX62yYeaPM8kdjqh30DDzwp7kE2JqkL7TSm+raRexk0vGrfVyAmSOT9/ZvGvm95KoAXD6UcGdFPAy0d83cShlWJNTBkKhPcjWJbMKX9d/m0N0+4acizx2/DLtKjJ01CgDQrs3UZnaLTLt0n528Crk1nlu4+wTmXy5DiYH924ELh56EUKVCKPHb7u58vqIfzpnzX6Mn4RanV4oWpk2H8Lzhidzd248UuBzTjGuF2+TcrvIcvmfae8ArNTNm+xycu5NS6KSHcFeqdwc3HJCg+pr92zYC+19LbkcAI/D47RpktsP8MMAvnONp8iYZ56bFdMoXPjsfCa5TplJ9zwxvkYKo0tMEaOcRmInXvEGkub/EscH+N/xc9CIGwk2H2C7MiuVgxNOTgETGA75Q9PtlvZ9O4awYXHF+HlCv1O4earZ9Ykuq0qcM158kKJVr9teezyM4WjUyiD+vhsBMwIgdQPw0nprXj2TEzizpqewbBBpCwF+M5Y5lP8WAUFZYX8mpd/cRaTzp+A0JHT08zP/ukx81PXP8eXeEDgd0KIQkPH/8PrTptVC+5owQ4H2kHQf+LRrfyF+ZqlO1qOJW7J1MGIh54+FeBuK5XJqYMojKuqwu89yvKv8LPKb8+uoYggzvoSdn0iF8M58YlU7LBpJhGPpARoZhpHeu7UW0YSSk18AQo4fEiy2sufUFiYb3Om+zB437IPm5ffes48/J119H/A4BKRNDdl8Cx9cd26TdfNs4nMQElu076TYdLC4aVm1cI7w7DWhnHGEY7qeHgd/lvfpPPgqusKK6noAZOT4K7xrqj4CVUM86nwq+tTS8ukD7INiDJjgMAV9iWDzZ7vF4LVffXNl7MtKG0LhHZ0xy2e4rqEmweTJiqFArg/1qeBCzuW9oOMQ5496BBU773yQ+alN59vwQznvMfcRWM22TP6OFpfmiFwSetFkn73cnuEgWuHx2F7rlu18A6zctYNHC23RyHQgpebEWHCddUCX0JyXOLxCk4WjXujxTvEcYJ8dk3Af6X5NyhT5yebvBXsPEMQQGEfGQI3GTfEjx6WYNd9aCdFmbfrSCcg0LKTIgHukoom3ivMr0QgDIDEfIqffbTEGe5acAmML07S4Fd1MywEZRYvaFz0s8ank89YCxsm5SkL707i1JN1gZ/pP5U/CfGi6fVq8l3Q1tvtPFm8arecJn+9FIDWU6cmDw149uR5LY3AV6YnzYmW+LojINzTTB3dwiut3Y1wT6NOPA1rK3w/QhCtNXFEtRMeZJVG6qOSZCaRqJjvS8/QfGL5g0C3BKn7GTjw6Jt/dYhit/AKEWgeclPgprv0hSFBNh9/6hJzpL+1h9ZpEhx2j0EbhcDFhdR1OtkJBg0YLksLRvqC6YvoEhqLP25fin3h3Saygk9aMWIOlXGWhXNaWZdaGt+PQI0uLH81oRL4ezCcIhiY1nZ5W43OqZ896VSwz10xc77B5R13zCCmCxgVcLj3sRMOq/pw2naomQ7bK3l3BAQ94YfnXhHygrvQqbFlCiWU7+U7D3+qLNCHMvk7Bh8PzJhqF1uhUYtWrb9E1tfxxXNmh0QwAlLzaXbOOITgZZyTAzSe8RytoXbqby2ticlFAebnHPxZVD5T5Y5NHrvk02w+nvQETX7FrDtpW9dXzKd30ZazD9ItPuQ6JURlyxl2JIhNUgvKO5fezbsRrDDdwlvOcL58LzjBXW+XCwduLyDYIziIxhPnVw9/Er4YPxYuX7qviTOn+HfTaIGon31ldDOul3HrJl16pe5V/Gaajz8jfha+Ft+fv22b/O233M50umw2Lboqhw9Irpu3mrZ0baT/H3FKnq1cAPRtPUvbaibV6m1gdstZ675iwELIw/3dC6/y7VFltp29crC+BWa9XU5PToz0Jf6Ds1pW37zafqFNtBCFvmr/4Ol9IaUXTF9sJpOppnENBeqiQNu7HAPEfOMg3SYvU4a0jMKiQXGUSt+6/xVz44p3CST7189fbX6CBOro+dHwGj4N0LK9i7ZywcnWs/i2symklfuPKLC5jJEtZwiLBo9nCEpXG4agly1ngJFtZy04IdHjyuza0aYjT5EclYV3Ur5LKf62m1aL6mJ9aXwKfzJIjvS7f/r9ZsWfX2O27n/ZvH7sZfPuZT8tpTd+Q4HKKbB16FlbZvBKmiRfGSgH//ryZ9vkIchD57EZUTo0q43PbTSG7uOWM+WRBa+4sGOO0j2lWnhJcb44SYNfxbYzn4DXdciz4CK+xHfLz4t3t/DrRr3hgABPCl+Kzwj5+TPCNV/6n/yH/2p+5dO/bDbs/if+h0KAr0qxA6JxDQWqosCqn1ppvvvVL9nimI/z8Wes/hz833fo9aP4EDbDFp+e/iydKf8r99/LAwEfZcyZstDMJOEur7i4jLrTLs/2LVyUXeUOhCramAfvKuoZb2V8bfdfmJd2vGDuu/c3zG/8ym+2xa95+P35b71mHvn853jtRtOqLmGvz6DR9TXPfgrMWTLDn+CJPbT7mCc2PUqOcE6HKp96uH8P8zNKAE/fRzydhy/ja1Dpcjks7/D2o8jXtvvcn/+xeeTPP+ctZ/H0t5kLFy+EaUlmlzzmjLAQz8NQv108nUIfZe09sdMD0RolOyIuBvhpPFuh88cM9A9kAvcHMAN9gwwrefT6Bq5VvFSdHEYmAw5vjH/+8F90jBwQ9Ju+tcW4eEjYRUTwdOOb8KVHgbRJ+7I5Uw3G+G3Ez+Dp1Tfbdc26qNR3mDT5qqaQfXTG97/9N78X4uobDM1ACMnTPOSkAAYCtJ3VWOQvpcpQRW3ke/7x1zg/LnXgg9Ey8OYjF/7/9s4gu2kYCMMlN2g2bXlsyuMIXJaj9Ajdl9cVLTvKArgC82v8x5YcJ23j8hLzaZHJeBJL/vSPpDh20r3m4jpv2nL99493w8t9Jtv150d/vf5rVqJ7mjh7uF1Zn1/G9f2xlFy/r1fc66vcbh7HaHfp7Olb/I9BV54eflX9J324tDqRJnQDX7m/Y7PEjlcfoMvnjtvvciXf1uqmttvtT8d1cDdfbv2CvdYJIQD337+GKPLmD78xfddr66j91v7f8d/NDT3pD9V0djYcREzr0MFklOhXSvCst+1X1el2uS2q3/s4j8Hg0+cPZaUzHhXd4rbf7b9tfJjorkk2tazjdXF7WntYvK1fiytzTpv7//nQDzqu8bm23FE8GEUuP65Hb+2Pd97j6ytq92vfr7DfWuJJILlszsmXjbHN386W1Bz4L43ro641ohlOKxqJwkPNRYhGlw25vpfu/9D28f7oHvijv0iEkEGWgR7IjwXlx1zn5K0TLAQgAAEIHA+BVVlaqz2aulWwcEAH5AHjwGLGgVV+VovPaeUzGxYO0jY6QAfoYCl50K3kY9ouM3f89kFn7beWuMTf84JPzQN91DzQR80DfdQ8/oU+uqtrVLGKlvNllC/e+IE4fNDHOC+8hfwgP44vP1aWZ1qvUOutvUd85xyo4K4+Jg4f9NEPJ6Nn5M9bjB/dIK8ViErY8nTge7st8eRkHq2FD3wyibZzQB/buTiP4DM7n9E5+ZxJPKNi4aHsQwfoAB2cah5wTl7a3RQtI2JAmyzE4YM+JtOD7/QCzfHpY3xOfroH9xyA3rjrAInDB30oC6YLfKbZKAKf1/AZn5MveyknxuIZNqHCAQ4igA7QwenpoP8Vyuy9nCytZW3T5IlvOvBAD+QD48FJjQf9Ha+l2dF7ww6UU3xvtO9jtE88iZgHfGoe6KPmgT5qHuij5jGvPpovXr1zLAQgAAEILIFAdU4+/mGwO6a0+PBIQaAHcSAfyIdTzAdW8tlrPEIAAhBYJIFqJd+ckI8Drmfu3jcL4kmi5QCf7VzMCT7wEQHrobXoY059sJK3nrAQgAAEFkjgL253SvtOvAydAAAAAElFTkSuQmCC;" parent="1" vertex="1">
          <mxGeometry x="200" y="200" width="377" height="476" as="geometry" />
        </mxCell>
      </root>
    </mxGraphModel>
  </diagram>
</mxfile>
